<svg version="1.2" baseProfile="tiny-ps" xmlns="http://www.w3.org/2000/svg" viewBox="0 0 126 176" width="126" height="176">
	<title>Layer 1</title>
	<defs>
		<clipPath clipPathUnits="userSpaceOnUse" id="cp1">
			<path d="M76.18 104.61L76.18 72.45L104.32 72.45L104.32 104.61L125.43 104.61L125.43 131.5L104.32 131.5L104.32 175.73L76.18 175.73L76.18 131.5L0.78 131.5L0.78 105.37L65.37 0.07L97.79 0.07L34.21 104.61L76.18 104.61Z" />
		</clipPath>
	</defs>
	<style>
		tspan { white-space:pre }
		.shp0 { fill: none } 
		.shp1 { mix-blend-mode: multiply;fill: #00e5b7 } 
		.shp2 { mix-blend-mode: multiply;fill: #ffd000 } 
		.shp3 { mix-blend-mode: multiply;fill: #ff5075 } 
		.shp4 { mix-blend-mode: multiply;fill: #c9c9c9 } 
	</style>
	<g id="Layer 1">
		<g id="&lt;Group&gt;">
			<g id="&lt;Group&gt;">
				<g id="&lt;Group&gt;">
					<g id="&lt;Clip Group&gt;" clip-path="url(#cp1)">
						<path id="&lt;Compound Path&gt;" class="shp0" d="" />
						<g id="&lt;Group&gt;">
							<path id="&lt;Path&gt;" class="shp1" d="M-33.09 107.17C-34.68 102.23 -31.96 96.93 -27.01 95.33C-22.07 93.74 -16.77 96.46 -15.17 101.41C-13.58 106.35 -16.3 111.65 -21.25 113.25C-26.19 114.84 -31.49 112.12 -33.09 107.17Z" />
							<path id="&lt;Path&gt;" class="shp1" d="M109.68 155.08C106.79 168.77 93.34 177.51 79.66 174.62C65.97 171.72 57.22 158.28 60.12 144.6C63.01 130.91 76.45 122.16 90.14 125.05C103.83 127.95 112.58 141.39 109.68 155.08Z" />
							<path id="&lt;Path&gt;" class="shp1" d="M140.32 -20.91C136.4 -11.91 125.93 -7.79 116.93 -11.71C107.93 -15.62 103.81 -26.1 107.72 -35.1C111.64 -44.1 122.11 -48.22 131.12 -44.3C140.12 -40.39 144.24 -29.91 140.32 -20.91Z" />
							<path id="&lt;Path&gt;" class="shp1" d="M23.94 201.17C8.19 203.27 -6.28 192.2 -8.38 176.45C-10.47 160.7 0.6 146.23 16.35 144.13C32.1 142.04 46.57 153.11 48.66 168.86C50.76 184.61 39.69 199.08 23.94 201.17Z" />
							<path id="&lt;Path&gt;" class="shp1" d="M171.09 162.32C169.95 157.19 173.18 152.11 178.31 150.97C183.44 149.83 188.52 153.06 189.66 158.18C190.8 163.31 187.57 168.39 182.44 169.53C177.32 170.68 172.24 167.45 171.09 162.32Z" />
							<path id="&lt;Path&gt;" class="shp1" d="M125.38 -19.63C138.15 -27.97 155.26 -24.38 163.59 -11.61C171.93 1.16 168.34 18.27 155.57 26.61C142.8 34.95 125.69 31.36 117.35 18.59C109.01 5.82 112.61 -11.29 125.38 -19.63Z" />
							<path id="&lt;Path&gt;" class="shp1" d="M30.93 166.65C25.5 162.29 24.64 154.35 29.01 148.92C33.37 143.5 41.31 142.64 46.73 147C52.16 151.37 53.02 159.3 48.65 164.73C44.29 170.16 36.35 171.02 30.93 166.65Z" />
							<path id="&lt;Path&gt;" class="shp1" d="M8.11 167.98C-8.39 168.76 -22.4 156.02 -23.18 139.52C-23.96 123.02 -11.22 109.01 5.28 108.23C21.78 107.45 35.79 120.2 36.57 136.69C37.35 153.19 24.61 167.2 8.11 167.98Z" />
							<path id="&lt;Path&gt;" class="shp1" d="M180.59 39.16C180.19 47.91 172.79 54.68 164.04 54.29C155.3 53.9 148.53 46.49 148.92 37.74C149.31 29 156.71 22.23 165.46 22.62C174.2 23.01 180.98 30.42 180.59 39.16Z" />
							<path id="&lt;Path&gt;" class="shp1" d="M10.26 -15.5C5.96 -19.25 5.51 -25.78 9.26 -30.08C13.01 -34.38 19.53 -34.83 23.84 -31.08C28.14 -27.33 28.59 -20.8 24.84 -16.5C21.09 -12.2 14.56 -11.75 10.26 -15.5Z" />
							<path id="&lt;Path&gt;" class="shp1" d="M131.09 47.43C135.15 59.12 128.96 71.89 117.27 75.95C105.59 80.01 92.82 73.82 88.76 62.13C84.7 50.44 90.88 37.67 102.57 33.61C114.26 29.55 127.03 35.74 131.09 47.43Z" />
							<path id="&lt;Path&gt;" class="shp1" d="M-45.19 205.1C-52.69 197.21 -52.37 184.73 -44.48 177.23C-36.59 169.73 -24.11 170.05 -16.61 177.94C-9.11 185.84 -9.43 198.31 -17.32 205.81C-25.21 213.31 -37.69 212.99 -45.19 205.1Z" />
							<path id="&lt;Path&gt;" class="shp1" d="M51.75 106.38C57.69 97.56 69.66 95.23 78.48 101.17C87.3 107.11 89.63 119.08 83.69 127.9C77.74 136.72 65.77 139.05 56.95 133.11C48.13 127.17 45.8 115.2 51.75 106.38Z" />
							<path id="&lt;Path&gt;" class="shp1" d="M34.33 118.4C41.41 112.94 51.57 114.25 57.03 121.33C62.49 128.4 61.18 138.57 54.11 144.03C47.03 149.49 36.87 148.18 31.41 141.1C25.95 134.03 27.26 123.86 34.33 118.4Z" />
							<path id="&lt;Path&gt;" class="shp1" d="M42.46 46.78C34.73 44.92 29.97 37.14 31.83 29.41C33.69 21.68 41.47 16.92 49.21 18.78C56.94 20.64 61.7 28.42 59.83 36.15C57.97 43.88 50.19 48.64 42.46 46.78Z" />
							<path id="&lt;Path&gt;" class="shp1" d="M187.9 17.21C180.44 24.22 168.71 23.85 161.7 16.39C154.69 8.92 155.06 -2.81 162.52 -9.82C169.99 -16.82 181.72 -16.45 188.72 -8.99C195.73 -1.53 195.36 10.2 187.9 17.21Z" />
							<path id="&lt;Path&gt;" class="shp1" d="M155.71 90.64C155.37 96.12 150.64 100.29 145.16 99.95C139.67 99.6 135.5 94.88 135.85 89.39C136.19 83.91 140.92 79.74 146.4 80.08C151.89 80.43 156.05 85.15 155.71 90.64Z" />
							<path id="&lt;Path&gt;" class="shp1" d="M139.08 157.78C132.37 160.55 124.69 157.35 121.93 150.65C119.16 143.94 122.36 136.26 129.06 133.5C135.77 130.73 143.45 133.92 146.22 140.63C148.98 147.34 145.79 155.02 139.08 157.78Z" />
							<path id="&lt;Path&gt;" class="shp1" d="M-23.73 -39.57C-18.61 -42.73 -11.9 -41.13 -8.75 -36.01C-5.59 -30.88 -7.19 -24.17 -12.31 -21.02C-17.44 -17.87 -24.15 -19.46 -27.3 -24.59C-30.45 -29.71 -28.86 -36.42 -23.73 -39.57Z" />
							<path id="&lt;Path&gt;" class="shp1" d="M106.65 133.32C101.67 123.96 105.21 112.33 114.57 107.34C123.93 102.35 135.56 105.9 140.55 115.26C145.54 124.62 141.99 136.25 132.63 141.24C123.27 146.23 111.64 142.68 106.65 133.32Z" />
							<path id="&lt;Path&gt;" class="shp2" d="M124.55 0.94C119.52 10.19 107.95 13.62 98.69 8.6C89.44 3.58 86.01 -8 91.03 -17.25C96.06 -26.51 107.63 -29.94 116.89 -24.91C126.14 -19.89 129.57 -8.31 124.55 0.94Z" />
							<path id="&lt;Path&gt;" class="shp2" d="M183.36 77.51C183.49 84.4 178.02 90.09 171.13 90.23C164.24 90.36 158.55 84.89 158.41 78C158.28 71.11 163.75 65.42 170.64 65.28C177.53 65.15 183.22 70.62 183.36 77.51Z" />
							<path id="&lt;Path&gt;" class="shp2" d="M-32.2 100.57C-38.56 108.35 -50.02 109.49 -57.79 103.13C-65.56 96.77 -66.71 85.31 -60.35 77.54C-53.99 69.76 -42.53 68.62 -34.75 74.98C-26.98 81.34 -25.84 92.8 -32.2 100.57Z" />
							<path id="&lt;Path&gt;" class="shp2" d="M127.6 90.77C118.33 87.48 113.48 77.29 116.76 68.02C120.05 58.74 130.24 53.89 139.51 57.18C148.79 60.47 153.64 70.65 150.35 79.93C147.06 89.2 136.88 94.06 127.6 90.77Z" />
							<path id="&lt;Path&gt;" class="shp2" d="M49.9 108.8C44.27 107.19 41 101.32 42.61 95.69C44.22 90.06 50.08 86.8 55.71 88.4C61.34 90.01 64.61 95.88 63 101.51C61.4 107.14 55.53 110.4 49.9 108.8Z" />
							<path id="&lt;Path&gt;" class="shp2" d="M157.46 152.62C157.6 141.71 166.55 132.98 177.46 133.12C188.37 133.26 197.1 142.21 196.96 153.12C196.82 164.03 187.86 172.76 176.95 172.62C166.05 172.48 157.32 163.52 157.46 152.62Z" />
							<path id="&lt;Path&gt;" class="shp2" d="M93.76 185.06C95.91 189.49 94.06 194.83 89.63 196.99C85.2 199.14 79.86 197.29 77.7 192.86C75.55 188.43 77.4 183.09 81.83 180.94C86.26 178.78 91.6 180.63 93.76 185.06Z" />
							<path id="&lt;Path&gt;" class="shp2" d="M91.91 39.73C86.98 35.78 86.18 28.57 90.14 23.64C94.09 18.7 101.3 17.91 106.23 21.87C111.17 25.82 111.96 33.03 108 37.96C104.05 42.89 96.84 43.69 91.91 39.73Z" />
							<path id="&lt;Path&gt;" class="shp2" d="M105.84 12.94C110.74 18.41 110.29 26.82 104.82 31.73C99.36 36.63 90.95 36.18 86.04 30.71C81.13 25.25 81.59 16.84 87.05 11.93C92.52 7.02 100.93 7.48 105.84 12.94Z" />
							<path id="&lt;Path&gt;" class="shp2" d="M21.03 21.24C26.45 19.27 32.43 22.06 34.4 27.48C36.37 32.89 33.58 38.88 28.16 40.85C22.75 42.82 16.76 40.03 14.79 34.61C12.82 29.2 15.62 23.21 21.03 21.24Z" />
							<path id="&lt;Path&gt;" class="shp2" d="M-5.7 17.24C10.98 22.51 20.24 40.3 14.97 56.99C9.7 73.68 -8.09 82.93 -24.78 77.67C-41.47 72.4 -50.72 54.6 -45.45 37.91C-40.19 21.23 -22.39 11.97 -5.7 17.24Z" />
							<path id="&lt;Path&gt;" class="shp2" d="M10.79 94.6C24.72 99.84 31.77 115.39 26.52 129.33C21.28 143.26 5.73 150.31 -8.21 145.06C-22.14 139.82 -29.19 124.27 -23.94 110.33C-18.7 96.4 -3.15 89.35 10.79 94.6Z" />
							<path id="&lt;Path&gt;" class="shp2" d="M35.72 42.36C40.05 44.88 41.51 50.43 39 54.76C36.48 59.08 30.92 60.55 26.6 58.03C22.27 55.51 20.8 49.96 23.32 45.63C25.84 41.3 31.39 39.84 35.72 42.36Z" />
							<path id="&lt;Path&gt;" class="shp2" d="M174.34 -13.85C168.63 -14.16 164.25 -19.04 164.56 -24.75C164.87 -30.46 169.75 -34.84 175.46 -34.53C181.17 -34.22 185.55 -29.34 185.24 -23.63C184.93 -17.92 180.05 -13.54 174.34 -13.85Z" />
							<path id="&lt;Path&gt;" class="shp2" d="M183.05 191.09C179.85 194.77 174.27 195.16 170.59 191.97C166.91 188.77 166.51 183.19 169.71 179.5C172.91 175.82 178.49 175.43 182.18 178.63C185.86 181.83 186.25 187.41 183.05 191.09Z" />
							<path id="&lt;Path&gt;" class="shp2" d="M-67.46 118.21C-70.03 104.98 -61.39 92.18 -48.17 89.61C-34.94 87.03 -22.14 95.67 -19.57 108.9C-17 122.12 -25.63 134.93 -38.86 137.5C-52.08 140.07 -64.89 131.43 -67.46 118.21Z" />
							<path id="&lt;Path&gt;" class="shp2" d="M179.62 111.02C175.76 108.87 174.36 103.99 176.52 100.12C178.67 96.25 183.55 94.86 187.42 97.01C191.29 99.17 192.68 104.05 190.53 107.92C188.37 111.78 183.49 113.18 179.62 111.02Z" />
							<path id="&lt;Path&gt;" class="shp2" d="M67.5 -20.7C77.05 -32.14 94.08 -33.68 105.52 -24.13C116.97 -14.58 118.51 2.45 108.96 13.9C99.41 25.34 82.38 26.88 70.93 17.33C59.48 7.78 57.95 -9.25 67.5 -20.7Z" />
							<path id="&lt;Path&gt;" class="shp2" d="M27.04 11.57C31.08 25.66 22.95 40.36 8.86 44.4C-5.22 48.45 -19.92 40.32 -23.97 26.23C-28.02 12.15 -19.89 -2.56 -5.8 -6.6C8.29 -10.65 22.99 -2.52 27.04 11.57Z" />
							<path id="&lt;Path&gt;" class="shp2" d="M34.28 98.4C41.42 98.09 47.46 103.63 47.77 110.77C48.08 117.91 42.54 123.95 35.4 124.26C28.26 124.57 22.22 119.03 21.91 111.89C21.6 104.75 27.14 98.71 34.28 98.4Z" />
							<path id="&lt;Path&gt;" class="shp3" d="M44.28 207.21C39.31 210.73 32.43 209.57 28.91 204.6C25.38 199.64 26.55 192.76 31.51 189.23C36.48 185.71 43.36 186.88 46.88 191.84C50.41 196.8 49.24 203.69 44.28 207.21Z" />
							<path id="&lt;Path&gt;" class="shp3" d="M61.23 192.33C56.21 193.58 51.14 190.52 49.89 185.5C48.65 180.48 51.71 175.41 56.72 174.16C61.74 172.92 66.82 175.98 68.07 180.99C69.31 186.01 66.25 191.09 61.23 192.33Z" />
							<path id="&lt;Path&gt;" class="shp3" d="M77.1 112.46C81.21 97.94 96.31 89.51 110.82 93.62C125.34 97.73 133.77 112.82 129.66 127.34C125.55 141.85 110.45 150.29 95.94 146.18C81.42 142.07 72.99 126.97 77.1 112.46Z" />
							<path id="&lt;Path&gt;" class="shp3" d="M60.63 145.89C64.82 149.07 65.65 155.04 62.47 159.24C59.29 163.43 53.32 164.26 49.12 161.08C44.93 157.9 44.11 151.93 47.28 147.73C50.46 143.54 56.44 142.72 60.63 145.89Z" />
							<path id="&lt;Path&gt;" class="shp3" d="M144.71 202.58C141.66 206.4 136.08 207.02 132.26 203.97C128.44 200.91 127.81 195.34 130.87 191.52C133.92 187.7 139.5 187.07 143.32 190.13C147.14 193.18 147.76 198.76 144.71 202.58Z" />
							<path id="&lt;Path&gt;" class="shp3" d="M38.75 2.45C36.39 6.99 30.8 8.75 26.26 6.4C21.72 4.04 19.95 -1.55 22.31 -6.09C24.67 -10.63 30.26 -12.4 34.8 -10.04C39.34 -7.68 41.11 -2.09 38.75 2.45Z" />
							<path id="&lt;Path&gt;" class="shp3" d="M46.02 79.21C47.92 83.92 45.64 89.28 40.92 91.18C36.21 93.08 30.85 90.8 28.95 86.09C27.05 81.38 29.33 76.02 34.05 74.12C38.76 72.22 44.12 74.5 46.02 79.21Z" />
							<path id="&lt;Path&gt;" class="shp3" d="M49.64 48.73C44.78 35.49 51.57 20.82 64.81 15.96C78.05 11.1 92.72 17.9 97.58 31.13C102.43 44.37 95.64 59.04 82.4 63.9C69.16 68.76 54.5 61.96 49.64 48.73Z" />
							<path id="&lt;Path&gt;" class="shp3" d="M144.17 -23.43C141.41 -27.2 142.22 -32.5 145.99 -35.26C149.76 -38.03 155.06 -37.21 157.83 -33.44C160.59 -29.67 159.78 -24.37 156.01 -21.61C152.24 -18.84 146.94 -19.65 144.17 -23.43Z" />
							<path id="&lt;Path&gt;" class="shp3" d="M177.98 126.19C170.17 136.89 155.15 139.23 144.45 131.41C133.75 123.59 131.41 108.57 139.23 97.87C147.05 87.17 162.07 84.83 172.77 92.65C183.47 100.47 185.8 115.49 177.98 126.19Z" />
							<path id="&lt;Path&gt;" class="shp3" d="M108.1 70.16C110.53 80.52 104.11 90.9 93.75 93.34C83.38 95.78 73.01 89.35 70.57 78.99C68.13 68.63 74.56 58.25 84.92 55.81C95.28 53.38 105.66 59.8 108.1 70.16Z" />
							<path id="&lt;Path&gt;" class="shp3" d="M105.58 183.07C101.44 177.29 102.77 169.25 108.54 165.11C114.32 160.97 122.36 162.3 126.5 168.08C130.64 173.85 129.31 181.89 123.54 186.03C117.76 190.17 109.72 188.85 105.58 183.07Z" />
							<path id="&lt;Path&gt;" class="shp3" d="M123.78 80.46C132.31 95.57 126.97 114.73 111.86 123.26C96.75 131.79 77.59 126.46 69.06 111.35C60.53 96.24 65.87 77.08 80.97 68.55C96.08 60.02 115.25 65.35 123.78 80.46Z" />
							<path id="&lt;Path&gt;" class="shp3" d="M69.98 -7.26C55.71 -9.24 45.75 -22.41 47.72 -36.67C49.7 -50.94 62.87 -60.91 77.14 -58.93C91.41 -56.95 101.37 -43.78 99.39 -29.51C97.41 -15.24 84.24 -5.28 69.98 -7.26Z" />
							<path id="&lt;Path&gt;" class="shp3" d="M-50.72 170.89C-47.39 165.85 -40.6 164.46 -35.56 167.79C-30.52 171.13 -29.13 177.92 -32.46 182.96C-35.79 188 -42.58 189.39 -47.63 186.06C-52.67 182.72 -54.06 175.93 -50.72 170.89Z" />
							<path id="&lt;Path&gt;" class="shp3" d="M147.18 162.08C136.05 152.26 134.99 135.26 144.81 124.13C154.64 112.99 171.63 111.93 182.76 121.76C193.9 131.58 194.96 148.57 185.14 159.71C175.31 170.84 158.32 171.91 147.18 162.08Z" />
							<path id="&lt;Path&gt;" class="shp3" d="M103.52 -15.35C98.74 -13.87 93.66 -16.55 92.18 -21.34C90.7 -26.12 93.38 -31.2 98.16 -32.68C102.95 -34.16 108.02 -31.48 109.5 -26.69C110.98 -21.91 108.3 -16.83 103.52 -15.35Z" />
							<path id="&lt;Path&gt;" class="shp3" d="M61.5 27.13C45.4 32.79 27.76 24.33 22.1 8.23C16.43 -7.86 24.89 -25.5 40.99 -31.17C57.09 -36.83 74.73 -28.37 80.39 -12.27C86.05 3.83 77.59 21.47 61.5 27.13Z" />
							<path id="&lt;Path&gt;" class="shp3" d="M142.09 39.14C139.56 50.89 127.99 58.37 116.23 55.84C104.48 53.32 97.01 41.74 99.53 29.99C102.06 18.24 113.63 10.77 125.38 13.29C137.13 15.82 144.61 27.39 142.09 39.14Z" />
							<path id="&lt;Path&gt;" class="shp3" d="M0.69 52.91C3.03 47.09 9.64 44.26 15.46 46.59C21.28 48.93 24.11 55.54 21.78 61.36C19.44 67.19 12.83 70.01 7.01 67.68C1.19 65.34 -1.64 58.73 0.69 52.91Z" />
							<path id="&lt;Path&gt;" class="shp4" d="M-6.55 43.07C-8.6 33.13 -2.21 23.42 7.72 21.36C17.66 19.31 27.38 25.7 29.43 35.63C31.49 45.57 25.1 55.29 15.16 57.34C5.22 59.4 -4.5 53.01 -6.55 43.07Z" />
							<path id="&lt;Path&gt;" class="shp4" d="M36.63 67C34.53 59.21 39.15 51.19 46.94 49.1C54.73 47.01 62.75 51.63 64.84 59.42C66.93 67.21 62.31 75.22 54.52 77.31C46.73 79.41 38.72 74.79 36.63 67Z" />
							<path id="&lt;Path&gt;" class="shp4" d="M-7.43 79.81C-7.87 90.97 -17.27 99.67 -28.43 99.23C-39.59 98.8 -48.29 89.39 -47.85 78.23C-47.41 67.07 -38.01 58.37 -26.85 58.81C-15.69 59.25 -6.99 68.65 -7.43 79.81Z" />
							<path id="&lt;Path&gt;" class="shp4" d="M67.39 99.3C59.63 102.11 51.06 98.1 48.25 90.34C45.44 82.57 49.46 74 57.22 71.19C64.98 68.38 73.55 72.4 76.36 80.16C79.17 87.92 75.16 96.49 67.39 99.3Z" />
							<path id="&lt;Path&gt;" class="shp4" d="M38.66 -22.66C32.84 -25.34 30.29 -32.24 32.97 -38.07C35.65 -43.89 42.55 -46.44 48.38 -43.76C54.21 -41.08 56.75 -34.18 54.07 -28.35C51.39 -22.52 44.49 -19.98 38.66 -22.66Z" />
							<path id="&lt;Path&gt;" class="shp4" d="M164.8 59.05C164.07 54.33 167.3 49.91 172.02 49.18C176.74 48.45 181.15 51.68 181.88 56.4C182.62 61.12 179.39 65.53 174.67 66.26C169.95 67 165.53 63.76 164.8 59.05Z" />
							<path id="&lt;Path&gt;" class="shp4" d="M5.46 184.93C7.46 191.2 4.01 197.91 -2.26 199.91C-8.53 201.92 -15.23 198.46 -17.24 192.19C-19.24 185.93 -15.79 179.22 -9.52 177.22C-3.25 175.21 3.45 178.67 5.46 184.93Z" />
							<path id="&lt;Path&gt;" class="shp4" d="M29.81 79.37C33.64 91.25 27.12 103.98 15.24 107.81C3.37 111.65 -9.36 105.12 -13.2 93.25C-17.03 81.37 -10.51 68.64 1.37 64.81C13.24 60.98 25.98 67.5 29.81 79.37Z" />
							<path id="&lt;Path&gt;" class="shp4" d="M158.58 151.06C170.52 157.22 175.21 171.9 169.05 183.85C162.88 195.8 148.2 200.49 136.25 194.32C124.3 188.16 119.61 173.47 125.78 161.53C131.94 149.58 146.63 144.89 158.58 151.06Z" />
							<path id="&lt;Path&gt;" class="shp4" d="M-49.28 148.9C-51.48 144.86 -49.99 139.8 -45.95 137.6C-41.9 135.4 -36.84 136.89 -34.64 140.93C-32.44 144.97 -33.93 150.03 -37.98 152.23C-42.02 154.43 -47.08 152.94 -49.28 148.9Z" />
							<path id="&lt;Path&gt;" class="shp4" d="M-39.48 -12.37C-47.97 -10.22 -56.6 -15.37 -58.74 -23.87C-60.88 -32.36 -55.73 -40.99 -47.24 -43.13C-38.74 -45.28 -30.12 -40.13 -27.97 -31.63C-25.83 -23.13 -30.98 -14.51 -39.48 -12.37Z" />
							<path id="&lt;Path&gt;" class="shp4" d="M135.63 54.17C134.86 49.28 138.2 44.69 143.09 43.92C147.98 43.14 152.57 46.48 153.35 51.37C154.12 56.26 150.78 60.86 145.89 61.63C141 62.4 136.41 59.07 135.63 54.17Z" />
							<path id="&lt;Path&gt;" class="shp4" d="M-32.28 107.55C-21.19 107.67 -12.29 116.75 -12.4 127.85C-12.52 138.95 -21.61 147.85 -32.7 147.73C-43.8 147.62 -52.7 138.53 -52.58 127.43C-52.47 116.33 -43.38 107.43 -32.28 107.55Z" />
							<path id="&lt;Path&gt;" class="shp4" d="M-32.66 63.3C-38.88 66.06 -46.15 63.25 -48.9 57.04C-51.66 50.82 -48.85 43.55 -42.64 40.8C-36.42 38.04 -29.15 40.85 -26.4 47.06C-23.64 53.28 -26.45 60.55 -32.66 63.3Z" />
							<path id="&lt;Path&gt;" class="shp4" d="M-57.78 6.36C-62.99 -0.17 -61.92 -9.69 -55.38 -14.9C-48.85 -20.11 -39.33 -19.04 -34.12 -12.51C-28.91 -5.97 -29.98 3.55 -36.51 8.76C-43.05 13.97 -52.57 12.9 -57.78 6.36Z" />
							<path id="&lt;Path&gt;" class="shp4" d="M-25.19 -34.18C-10.78 -39.64 5.33 -32.39 10.79 -17.99C16.26 -3.58 9.01 12.53 -5.39 17.99C-19.8 23.46 -35.91 16.21 -41.37 1.81C-46.84 -12.6 -39.59 -28.71 -25.19 -34.18Z" />
							<path id="&lt;Path&gt;" class="shp4" d="M-9.91 161.91C-17.61 156.33 -19.33 145.57 -13.75 137.88C-8.18 130.18 2.58 128.46 10.28 134.04C17.97 139.61 19.69 150.37 14.12 158.07C8.54 165.76 -2.22 167.48 -9.91 161.91Z" />
							<path id="&lt;Path&gt;" class="shp4" d="M120.41 92.26C124.75 92.93 127.72 96.99 127.05 101.33C126.38 105.66 122.33 108.64 117.99 107.97C113.65 107.3 110.68 103.24 111.35 98.9C112.02 94.57 116.07 91.6 120.41 92.26Z" />
							<path id="&lt;Path&gt;" class="shp4" d="M-26.6 176.72C-35.29 174.18 -40.27 165.08 -37.74 156.39C-35.2 147.71 -26.1 142.72 -17.41 145.26C-8.73 147.8 -3.74 156.89 -6.28 165.58C-8.82 174.27 -17.91 179.25 -26.6 176.72Z" />
							<path id="&lt;Path&gt;" class="shp4" d="M-30.49 21.09C-27.36 25.32 -28.25 31.28 -32.48 34.41C-36.7 37.54 -42.67 36.65 -45.8 32.42C-48.93 28.2 -48.04 22.23 -43.81 19.1C-39.59 15.97 -33.62 16.86 -30.49 21.09Z" />
						</g>
					</g>
				</g>
			</g>
		</g>
	</g>
</svg>