<svg version="1.2" baseProfile="tiny-ps" xmlns="http://www.w3.org/2000/svg" viewBox="0 0 65 176" width="65" height="176">
	<title>Layer 1</title>
	<defs>
		<clipPath clipPathUnits="userSpaceOnUse" id="cp1">
			<path d="M0.77 -0.1L64.6 -0.1L64.6 175.56L36.45 175.56L36.45 26.29L0.77 26.29L0.77 -0.1Z" />
		</clipPath>
	</defs>
	<style>
		tspan { white-space:pre }
		.shp0 { fill: none } 
		.shp1 { mix-blend-mode: multiply;fill: #00e5b7 } 
		.shp2 { mix-blend-mode: multiply;fill: #ffd000 } 
		.shp3 { mix-blend-mode: multiply;fill: #ff5075 } 
		.shp4 { mix-blend-mode: multiply;fill: #c9c9c9 } 
	</style>
	<g id="Layer 1">
		<g id="&lt;Group&gt;">
			<g id="&lt;Group&gt;">
				<g id="&lt;Group&gt;">
					<g id="&lt;Clip Group&gt;" clip-path="url(#cp1)">
						<path id="&lt;Compound Path&gt;" class="shp0" d="" />
						<g id="&lt;Group&gt;">
							<path id="&lt;Path&gt;" class="shp1" d="M-84.09 117C-85.68 112.05 -82.96 106.75 -78.01 105.16C-73.07 103.57 -67.77 106.29 -66.17 111.23C-64.58 116.18 -67.3 121.48 -72.25 123.07C-77.19 124.67 -82.49 121.95 -84.09 117Z" />
							<path id="&lt;Path&gt;" class="shp1" d="M58.68 164.9C55.79 178.59 42.34 187.34 28.66 184.45C14.97 181.55 6.22 168.11 9.12 154.42C12.01 140.73 25.45 131.99 39.14 134.88C52.83 137.78 61.58 151.22 58.68 164.9Z" />
							<path id="&lt;Path&gt;" class="shp1" d="M89.32 -11.09C85.4 -2.08 74.93 2.04 65.93 -1.88C56.93 -5.8 52.81 -16.27 56.72 -25.27C60.64 -34.27 71.11 -38.4 80.12 -34.48C89.12 -30.56 93.24 -20.09 89.32 -11.09Z" />
							<path id="&lt;Path&gt;" class="shp1" d="M-27.06 211C-42.81 213.1 -57.28 202.03 -59.38 186.28C-61.47 170.52 -50.4 156.06 -34.65 153.96C-18.9 151.86 -4.43 162.93 -2.34 178.69C-0.24 194.44 -11.31 208.9 -27.06 211Z" />
							<path id="&lt;Path&gt;" class="shp1" d="M120.09 172.15C118.95 167.02 122.18 161.94 127.31 160.8C132.44 159.65 137.52 162.88 138.66 168.01C139.8 173.14 136.57 178.22 131.44 179.36C126.32 180.5 121.24 177.27 120.09 172.15Z" />
							<path id="&lt;Path&gt;" class="shp1" d="M74.38 -9.81C87.15 -18.14 104.26 -14.55 112.59 -1.78C120.93 10.99 117.34 28.1 104.57 36.44C91.8 44.77 74.69 41.18 66.35 28.41C58.01 15.64 61.61 -1.47 74.38 -9.81Z" />
							<path id="&lt;Path&gt;" class="shp1" d="M-20.07 176.48C-25.5 172.11 -26.36 164.18 -21.99 158.75C-17.63 153.32 -9.69 152.46 -4.27 156.83C1.16 161.19 2.02 169.13 -2.35 174.56C-6.71 179.98 -14.65 180.84 -20.07 176.48Z" />
							<path id="&lt;Path&gt;" class="shp1" d="M-42.89 177.81C-59.39 178.59 -73.4 165.85 -74.18 149.35C-74.96 132.85 -62.22 118.84 -45.72 118.06C-29.22 117.28 -15.21 130.02 -14.43 146.52C-13.65 163.02 -26.39 177.03 -42.89 177.81Z" />
							<path id="&lt;Path&gt;" class="shp1" d="M129.59 48.99C129.19 57.73 121.79 64.5 113.04 64.11C104.3 63.72 97.53 56.32 97.92 47.57C98.31 38.83 105.71 32.05 114.46 32.44C123.2 32.83 129.98 40.24 129.59 48.99Z" />
							<path id="&lt;Path&gt;" class="shp1" d="M-40.74 -5.67C-45.04 -9.42 -45.49 -15.95 -41.74 -20.25C-37.99 -24.56 -31.47 -25 -27.16 -21.26C-22.86 -17.51 -22.41 -10.98 -26.16 -6.68C-29.91 -2.37 -36.44 -1.92 -40.74 -5.67Z" />
							<path id="&lt;Path&gt;" class="shp1" d="M80.09 57.26C84.15 68.94 77.96 81.71 66.27 85.77C54.59 89.83 41.82 83.65 37.76 71.96C33.7 60.27 39.88 47.5 51.57 43.44C63.26 39.38 76.03 45.57 80.09 57.26Z" />
							<path id="&lt;Path&gt;" class="shp1" d="M-96.19 214.92C-103.69 207.03 -103.37 194.55 -95.48 187.06C-87.59 179.56 -75.11 179.88 -67.61 187.77C-60.11 195.66 -60.43 208.14 -68.32 215.64C-76.21 223.14 -88.69 222.82 -96.19 214.92Z" />
							<path id="&lt;Path&gt;" class="shp1" d="M0.75 116.2C6.69 107.38 18.66 105.05 27.48 111C36.3 116.94 38.63 128.91 32.69 137.73C26.74 146.55 14.77 148.88 5.95 142.94C-2.87 136.99 -5.2 125.02 0.75 116.2Z" />
							<path id="&lt;Path&gt;" class="shp1" d="M-16.67 128.23C-9.59 122.77 0.57 124.08 6.03 131.15C11.49 138.23 10.18 148.39 3.11 153.85C-3.97 159.31 -14.13 158 -19.59 150.93C-25.05 143.85 -23.74 133.69 -16.67 128.23Z" />
							<path id="&lt;Path&gt;" class="shp1" d="M-8.54 56.61C-16.27 54.74 -21.03 46.97 -19.17 39.23C-17.31 31.5 -9.53 26.74 -1.79 28.6C5.94 30.47 10.7 38.24 8.83 45.98C6.97 53.71 -0.81 58.47 -8.54 56.61Z" />
							<path id="&lt;Path&gt;" class="shp1" d="M136.9 27.04C129.44 34.04 117.71 33.67 110.7 26.21C103.69 18.75 104.06 7.02 111.52 0.01C118.99 -7 130.72 -6.63 137.72 0.83C144.73 8.3 144.36 20.03 136.9 27.04Z" />
							<path id="&lt;Path&gt;" class="shp1" d="M104.71 100.46C104.37 105.95 99.64 110.12 94.16 109.77C88.67 109.43 84.5 104.7 84.85 99.22C85.19 93.74 89.92 89.57 95.4 89.91C100.89 90.25 105.05 94.98 104.71 100.46Z" />
							<path id="&lt;Path&gt;" class="shp1" d="M88.08 167.61C81.37 170.38 73.69 167.18 70.93 160.47C68.16 153.77 71.36 146.09 78.06 143.32C84.77 140.56 92.45 143.75 95.22 150.46C97.98 157.16 94.79 164.84 88.08 167.61Z" />
							<path id="&lt;Path&gt;" class="shp1" d="M-74.73 -29.75C-69.61 -32.9 -62.9 -31.3 -59.75 -26.18C-56.59 -21.06 -58.19 -14.35 -63.31 -11.19C-68.44 -8.04 -75.15 -9.64 -78.3 -14.76C-81.45 -19.88 -79.86 -26.59 -74.73 -29.75Z" />
							<path id="&lt;Path&gt;" class="shp1" d="M55.65 143.15C50.67 133.78 54.21 122.15 63.57 117.17C72.93 112.18 84.56 115.73 89.55 125.09C94.54 134.45 90.99 146.08 81.63 151.06C72.27 156.05 60.64 152.51 55.65 143.15Z" />
							<path id="&lt;Path&gt;" class="shp2" d="M73.55 10.77C68.52 20.02 56.95 23.45 47.69 18.43C38.44 13.4 35.01 1.83 40.03 -7.43C45.06 -16.68 56.63 -20.11 65.89 -15.09C75.14 -10.06 78.57 1.51 73.55 10.77Z" />
							<path id="&lt;Path&gt;" class="shp2" d="M132.36 87.34C132.49 94.23 127.02 99.92 120.13 100.05C113.24 100.19 107.55 94.71 107.41 87.82C107.28 80.94 112.75 75.24 119.64 75.11C126.53 74.97 132.22 80.45 132.36 87.34Z" />
							<path id="&lt;Path&gt;" class="shp2" d="M-83.2 110.4C-89.56 118.17 -101.02 119.32 -108.79 112.96C-116.56 106.6 -117.71 95.14 -111.35 87.36C-104.99 79.59 -93.53 78.45 -85.75 84.81C-77.98 91.17 -76.84 102.63 -83.2 110.4Z" />
							<path id="&lt;Path&gt;" class="shp2" d="M76.6 100.59C67.33 97.3 62.48 87.12 65.76 77.84C69.05 68.57 79.24 63.72 88.51 67C97.79 70.29 102.64 80.48 99.35 89.75C96.06 99.03 85.88 103.88 76.6 100.59Z" />
							<path id="&lt;Path&gt;" class="shp2" d="M-1.1 118.62C-6.73 117.02 -10 111.15 -8.39 105.52C-6.78 99.89 -0.92 96.62 4.71 98.23C10.34 99.84 13.61 105.7 12 111.33C10.4 116.96 4.53 120.23 -1.1 118.62Z" />
							<path id="&lt;Path&gt;" class="shp2" d="M106.46 162.44C106.6 151.53 115.55 142.8 126.46 142.94C137.37 143.08 146.1 152.04 145.96 162.95C145.82 173.86 136.86 182.59 125.95 182.45C115.05 182.31 106.32 173.35 106.46 162.44Z" />
							<path id="&lt;Path&gt;" class="shp2" d="M42.76 194.89C44.91 199.32 43.06 204.66 38.63 206.81C34.2 208.97 28.86 207.12 26.7 202.69C24.55 198.26 26.4 192.92 30.83 190.76C35.26 188.61 40.6 190.45 42.76 194.89Z" />
							<path id="&lt;Path&gt;" class="shp2" d="M40.91 49.56C35.98 45.6 35.18 38.4 39.14 33.46C43.09 28.53 50.3 27.74 55.23 31.69C60.17 35.65 60.96 42.85 57 47.79C53.05 52.72 45.84 53.51 40.91 49.56Z" />
							<path id="&lt;Path&gt;" class="shp2" d="M54.84 22.77C59.74 28.24 59.29 36.64 53.82 41.55C48.36 46.46 39.95 46.01 35.04 40.54C30.13 35.07 30.59 26.66 36.05 21.76C41.52 16.85 49.93 17.3 54.84 22.77Z" />
							<path id="&lt;Path&gt;" class="shp2" d="M-29.97 31.07C-24.55 29.1 -18.57 31.89 -16.6 37.3C-14.63 42.72 -17.42 48.71 -22.84 50.68C-28.25 52.65 -34.24 49.85 -36.21 44.44C-38.18 39.02 -35.38 33.04 -29.97 31.07Z" />
							<path id="&lt;Path&gt;" class="shp2" d="M-56.7 27.06C-40.02 32.33 -30.76 50.13 -36.03 66.82C-41.3 83.5 -59.09 92.76 -75.78 87.49C-92.47 82.22 -101.72 64.43 -96.45 47.74C-91.19 31.05 -73.39 21.8 -56.7 27.06Z" />
							<path id="&lt;Path&gt;" class="shp2" d="M-40.21 104.42C-26.28 109.67 -19.23 125.22 -24.48 139.15C-29.72 153.09 -45.27 160.13 -59.21 154.89C-73.14 149.64 -80.19 134.1 -74.94 120.16C-69.7 106.22 -54.15 99.18 -40.21 104.42Z" />
							<path id="&lt;Path&gt;" class="shp2" d="M-15.28 52.18C-10.95 54.7 -9.49 60.25 -12 64.58C-14.52 68.91 -20.08 70.38 -24.4 67.86C-28.73 65.34 -30.2 59.79 -27.68 55.46C-25.16 51.13 -19.61 49.66 -15.28 52.18Z" />
							<path id="&lt;Path&gt;" class="shp2" d="M123.34 -4.02C117.63 -4.33 113.25 -9.22 113.56 -14.93C113.87 -20.64 118.75 -25.01 124.46 -24.7C130.17 -24.39 134.55 -19.51 134.24 -13.8C133.93 -8.09 129.05 -3.71 123.34 -4.02Z" />
							<path id="&lt;Path&gt;" class="shp2" d="M132.05 200.92C128.85 204.6 123.27 204.99 119.59 201.79C115.91 198.59 115.51 193.01 118.71 189.33C121.91 185.65 127.49 185.26 131.18 188.45C134.86 191.65 135.25 197.23 132.05 200.92Z" />
							<path id="&lt;Path&gt;" class="shp2" d="M-118.46 128.03C-121.03 114.81 -112.39 102 -99.17 99.43C-85.94 96.86 -73.14 105.5 -70.57 118.72C-68 131.95 -76.63 144.75 -89.86 147.33C-103.08 149.9 -115.89 141.26 -118.46 128.03Z" />
							<path id="&lt;Path&gt;" class="shp2" d="M128.62 120.85C124.76 118.69 123.36 113.81 125.52 109.94C127.67 106.08 132.55 104.69 136.42 106.84C140.29 108.99 141.68 113.87 139.53 117.74C137.37 121.61 132.49 123 128.62 120.85Z" />
							<path id="&lt;Path&gt;" class="shp2" d="M16.5 -10.87C26.05 -22.32 43.08 -23.86 54.52 -14.3C65.97 -4.75 67.51 12.27 57.96 23.72C48.41 35.17 31.38 36.71 19.93 27.16C8.48 17.6 6.95 0.58 16.5 -10.87Z" />
							<path id="&lt;Path&gt;" class="shp2" d="M-23.96 21.4C-19.92 35.48 -28.05 50.18 -42.14 54.23C-56.22 58.28 -70.92 50.14 -74.97 36.06C-79.02 21.97 -70.89 7.27 -56.8 3.22C-42.71 -0.83 -28.01 7.31 -23.96 21.4Z" />
							<path id="&lt;Path&gt;" class="shp2" d="M-16.72 108.23C-9.58 107.92 -3.54 113.45 -3.23 120.59C-2.92 127.73 -8.46 133.78 -15.6 134.09C-22.74 134.4 -28.78 128.86 -29.09 121.72C-29.4 114.58 -23.86 108.54 -16.72 108.23Z" />
							<path id="&lt;Path&gt;" class="shp3" d="M-6.72 217.04C-11.69 220.56 -18.57 219.39 -22.09 214.43C-25.62 209.47 -24.45 202.58 -19.49 199.06C-14.52 195.54 -7.64 196.7 -4.12 201.67C-0.59 206.63 -1.76 213.51 -6.72 217.04Z" />
							<path id="&lt;Path&gt;" class="shp3" d="M10.23 202.16C5.21 203.41 0.14 200.35 -1.11 195.33C-2.35 190.31 0.71 185.23 5.72 183.99C10.74 182.74 15.82 185.8 17.07 190.82C18.31 195.84 15.25 200.92 10.23 202.16Z" />
							<path id="&lt;Path&gt;" class="shp3" d="M26.1 122.28C30.21 107.77 45.31 99.33 59.82 103.44C74.34 107.55 82.77 122.65 78.66 137.16C74.55 151.68 59.45 160.11 44.94 156C30.42 151.89 21.99 136.8 26.1 122.28Z" />
							<path id="&lt;Path&gt;" class="shp3" d="M9.63 155.72C13.82 158.9 14.65 164.87 11.47 169.06C8.29 173.26 2.32 174.08 -1.88 170.91C-6.07 167.73 -6.89 161.75 -3.72 157.56C-0.54 153.37 5.44 152.54 9.63 155.72Z" />
							<path id="&lt;Path&gt;" class="shp3" d="M93.71 212.4C90.66 216.23 85.08 216.85 81.26 213.79C77.44 210.74 76.81 205.16 79.87 201.34C82.92 197.52 88.5 196.9 92.32 199.95C96.14 203.01 96.76 208.58 93.71 212.4Z" />
							<path id="&lt;Path&gt;" class="shp3" d="M-12.25 12.28C-14.61 16.81 -20.2 18.58 -24.74 16.22C-29.28 13.86 -31.05 8.27 -28.69 3.73C-26.33 -0.8 -20.74 -2.57 -16.2 -0.21C-11.66 2.15 -9.89 7.74 -12.25 12.28Z" />
							<path id="&lt;Path&gt;" class="shp3" d="M-4.98 89.04C-3.08 93.75 -5.36 99.11 -10.08 101.01C-14.79 102.9 -20.15 100.63 -22.05 95.91C-23.95 91.2 -21.67 85.84 -16.95 83.94C-12.24 82.04 -6.88 84.32 -4.98 89.04Z" />
							<path id="&lt;Path&gt;" class="shp3" d="M-1.36 58.55C-6.22 45.31 0.57 30.65 13.81 25.79C27.05 20.93 41.72 27.72 46.58 40.96C51.43 54.2 44.64 68.87 31.4 73.73C18.16 78.58 3.5 71.79 -1.36 58.55Z" />
							<path id="&lt;Path&gt;" class="shp3" d="M93.17 -13.6C90.41 -17.37 91.22 -22.67 94.99 -25.43C98.76 -28.2 104.06 -27.39 106.83 -23.61C109.59 -19.84 108.78 -14.54 105.01 -11.78C101.24 -9.01 95.94 -9.83 93.17 -13.6Z" />
							<path id="&lt;Path&gt;" class="shp3" d="M126.98 136.01C119.17 146.72 104.15 149.05 93.45 141.23C82.75 133.41 80.41 118.4 88.23 107.7C96.05 96.99 111.07 94.66 121.77 102.48C132.47 110.3 134.8 125.31 126.98 136.01Z" />
							<path id="&lt;Path&gt;" class="shp3" d="M57.1 79.99C59.53 90.35 53.11 100.73 42.75 103.16C32.38 105.6 22.01 99.18 19.57 88.81C17.13 78.45 23.56 68.08 33.92 65.64C44.28 63.2 54.66 69.63 57.1 79.99Z" />
							<path id="&lt;Path&gt;" class="shp3" d="M54.58 192.9C50.44 187.12 51.77 179.08 57.54 174.94C63.32 170.8 71.36 172.12 75.5 177.9C79.64 183.68 78.31 191.72 72.54 195.86C66.76 200 58.72 198.67 54.58 192.9Z" />
							<path id="&lt;Path&gt;" class="shp3" d="M72.78 90.29C81.31 105.4 75.97 124.56 60.86 133.09C45.75 141.62 26.59 136.29 18.06 121.18C9.53 106.07 14.87 86.91 29.97 78.38C45.08 69.85 64.25 75.18 72.78 90.29Z" />
							<path id="&lt;Path&gt;" class="shp3" d="M18.98 2.57C4.71 0.59 -5.25 -12.58 -3.28 -26.85C-1.3 -41.12 11.87 -51.08 26.14 -49.1C40.41 -47.12 50.37 -33.95 48.39 -19.69C46.41 -5.42 33.24 4.54 18.98 2.57Z" />
							<path id="&lt;Path&gt;" class="shp3" d="M-101.72 180.72C-98.39 175.67 -91.6 174.29 -86.56 177.62C-81.52 180.95 -80.13 187.74 -83.46 192.79C-86.79 197.83 -93.58 199.21 -98.63 195.88C-103.67 192.55 -105.06 185.76 -101.72 180.72Z" />
							<path id="&lt;Path&gt;" class="shp3" d="M96.18 171.91C85.05 162.08 83.99 145.09 93.81 133.96C103.64 122.82 120.63 121.76 131.76 131.58C142.9 141.41 143.96 158.4 134.14 169.53C124.31 180.67 107.32 181.73 96.18 171.91Z" />
							<path id="&lt;Path&gt;" class="shp3" d="M52.52 -5.53C47.74 -4.05 42.66 -6.73 41.18 -11.51C39.7 -16.3 42.38 -21.37 47.16 -22.85C51.95 -24.33 57.02 -21.65 58.5 -16.87C59.98 -12.08 57.3 -7.01 52.52 -5.53Z" />
							<path id="&lt;Path&gt;" class="shp3" d="M10.5 36.96C-5.6 42.62 -23.24 34.16 -28.9 18.06C-34.57 1.96 -26.11 -15.68 -10.01 -21.34C6.09 -27 23.73 -18.54 29.39 -2.44C35.05 13.65 26.59 31.29 10.5 36.96Z" />
							<path id="&lt;Path&gt;" class="shp3" d="M91.09 48.97C88.56 60.72 76.99 68.2 65.23 65.67C53.48 63.14 46.01 51.57 48.53 39.82C51.06 28.07 62.63 20.59 74.38 23.12C86.13 25.64 93.61 37.22 91.09 48.97Z" />
							<path id="&lt;Path&gt;" class="shp3" d="M-50.31 62.74C-47.97 56.91 -41.36 54.09 -35.54 56.42C-29.72 58.75 -26.89 65.37 -29.22 71.19C-31.56 77.01 -38.17 79.84 -43.99 77.51C-49.81 75.17 -52.64 68.56 -50.31 62.74Z" />
							<path id="&lt;Path&gt;" class="shp4" d="M-57.55 52.9C-59.6 42.96 -53.21 33.24 -43.28 31.19C-33.34 29.13 -23.62 35.52 -21.57 45.46C-19.51 55.4 -25.9 65.12 -35.84 67.17C-45.78 69.22 -55.5 62.83 -57.55 52.9Z" />
							<path id="&lt;Path&gt;" class="shp4" d="M-14.37 76.82C-16.47 69.03 -11.85 61.02 -4.06 58.93C3.73 56.83 11.75 61.45 13.84 69.24C15.93 77.04 11.31 85.05 3.52 87.14C-4.27 89.23 -12.28 84.61 -14.37 76.82Z" />
							<path id="&lt;Path&gt;" class="shp4" d="M-58.43 89.64C-58.87 100.8 -68.27 109.5 -79.43 109.06C-90.59 108.62 -99.29 99.22 -98.85 88.06C-98.41 76.89 -89.01 68.2 -77.85 68.64C-66.69 69.07 -57.99 78.48 -58.43 89.64Z" />
							<path id="&lt;Path&gt;" class="shp4" d="M16.39 109.13C8.63 111.94 0.06 107.92 -2.75 100.16C-5.56 92.4 -1.54 83.83 6.22 81.02C13.98 78.21 22.55 82.22 25.36 89.99C28.17 97.75 24.16 106.32 16.39 109.13Z" />
							<path id="&lt;Path&gt;" class="shp4" d="M-12.34 -12.83C-18.16 -15.52 -20.71 -22.41 -18.03 -28.24C-15.35 -34.07 -8.45 -36.62 -2.62 -33.93C3.21 -31.25 5.75 -24.35 3.07 -18.53C0.39 -12.7 -6.51 -10.15 -12.34 -12.83Z" />
							<path id="&lt;Path&gt;" class="shp4" d="M113.8 68.87C113.07 64.16 116.3 59.74 121.02 59.01C125.74 58.28 130.15 61.51 130.88 66.23C131.62 70.94 128.39 75.36 123.67 76.09C118.95 76.82 114.53 73.59 113.8 68.87Z" />
							<path id="&lt;Path&gt;" class="shp4" d="M-45.54 194.76C-43.54 201.03 -46.99 207.73 -53.26 209.74C-59.53 211.74 -66.23 208.29 -68.24 202.02C-70.24 195.75 -66.79 189.05 -60.52 187.04C-54.25 185.04 -47.55 188.49 -45.54 194.76Z" />
							<path id="&lt;Path&gt;" class="shp4" d="M-21.19 89.2C-17.36 101.08 -23.88 113.81 -35.76 117.64C-47.63 121.47 -60.36 114.95 -64.2 103.07C-68.03 91.2 -61.51 78.47 -49.63 74.63C-37.76 70.8 -25.02 77.32 -21.19 89.2Z" />
							<path id="&lt;Path&gt;" class="shp4" d="M107.58 160.88C119.52 167.05 124.21 181.73 118.05 193.68C111.88 205.63 97.2 210.31 85.25 204.15C73.3 197.98 68.61 183.3 74.78 171.35C80.94 159.4 95.63 154.72 107.58 160.88Z" />
							<path id="&lt;Path&gt;" class="shp4" d="M-100.28 158.73C-102.48 154.68 -100.99 149.62 -96.95 147.42C-92.9 145.22 -87.84 146.71 -85.64 150.76C-83.44 154.8 -84.93 159.86 -88.98 162.06C-93.02 164.26 -98.08 162.77 -100.28 158.73Z" />
							<path id="&lt;Path&gt;" class="shp4" d="M-90.48 -2.54C-98.97 -0.4 -107.6 -5.54 -109.74 -14.04C-111.88 -22.54 -106.73 -31.16 -98.24 -33.31C-89.74 -35.45 -81.12 -30.3 -78.97 -21.8C-76.83 -13.31 -81.98 -4.68 -90.48 -2.54Z" />
							<path id="&lt;Path&gt;" class="shp4" d="M84.63 64C83.86 59.11 87.2 54.52 92.09 53.74C96.98 52.97 101.57 56.31 102.35 61.2C103.12 66.09 99.78 70.68 94.89 71.46C90 72.23 85.41 68.89 84.63 64Z" />
							<path id="&lt;Path&gt;" class="shp4" d="M-83.28 117.38C-72.19 117.49 -63.29 126.58 -63.4 137.68C-63.52 148.77 -72.61 157.67 -83.7 157.56C-94.8 157.44 -103.7 148.35 -103.58 137.26C-103.47 126.16 -94.38 117.26 -83.28 117.38Z" />
							<path id="&lt;Path&gt;" class="shp4" d="M-83.66 73.13C-89.88 75.88 -97.15 73.08 -99.9 66.86C-102.66 60.65 -99.85 53.38 -93.64 50.62C-87.42 47.87 -80.15 50.67 -77.4 56.89C-74.64 63.11 -77.45 70.38 -83.66 73.13Z" />
							<path id="&lt;Path&gt;" class="shp4" d="M-108.78 16.19C-113.99 9.65 -112.92 0.13 -106.38 -5.08C-99.85 -10.29 -90.33 -9.21 -85.12 -2.68C-79.91 3.86 -80.98 13.38 -87.51 18.59C-94.05 23.8 -103.57 22.73 -108.78 16.19Z" />
							<path id="&lt;Path&gt;" class="shp4" d="M-76.19 -24.35C-61.78 -29.82 -45.67 -22.57 -40.21 -8.16C-34.74 6.24 -41.99 22.35 -56.39 27.82C-70.8 33.28 -86.91 26.04 -92.37 11.63C-97.84 -2.77 -90.59 -18.88 -76.19 -24.35Z" />
							<path id="&lt;Path&gt;" class="shp4" d="M-60.91 171.73C-68.61 166.16 -70.33 155.4 -64.75 147.7C-59.18 140.01 -48.42 138.29 -40.72 143.86C-33.03 149.44 -31.31 160.2 -36.88 167.89C-42.46 175.59 -53.22 177.31 -60.91 171.73Z" />
							<path id="&lt;Path&gt;" class="shp4" d="M69.41 102.09C73.75 102.76 76.72 106.82 76.05 111.15C75.38 115.49 71.33 118.46 66.99 117.79C62.65 117.12 59.68 113.07 60.35 108.73C61.02 104.39 65.07 101.42 69.41 102.09Z" />
							<path id="&lt;Path&gt;" class="shp4" d="M-77.6 186.54C-86.29 184 -91.27 174.91 -88.74 166.22C-86.2 157.53 -77.1 152.55 -68.41 155.08C-59.73 157.62 -54.74 166.72 -57.28 175.41C-59.82 184.09 -68.91 189.08 -77.6 186.54Z" />
							<path id="&lt;Path&gt;" class="shp4" d="M-81.49 30.92C-78.36 35.14 -79.25 41.11 -83.48 44.24C-87.7 47.37 -93.67 46.48 -96.8 42.25C-99.93 38.02 -99.04 32.06 -94.81 28.93C-90.59 25.8 -84.62 26.69 -81.49 30.92Z" />
						</g>
					</g>
				</g>
			</g>
		</g>
	</g>
</svg>