<svg version="1.2" baseProfile="tiny-ps" xmlns="http://www.w3.org/2000/svg" viewBox="0 0 122 178" width="122" height="178">
	<title>Layer 1</title>
	<defs>
		<clipPath clipPathUnits="userSpaceOnUse" id="cp1">
			<path d="M10.11 26.29L10.11 -0.1L112.89 -0.1L112.89 23.02L70.42 70.52C86.51 71.02 99.07 76.09 108.12 85.72C117.16 95.36 121.69 106.87 121.69 120.27C121.69 138.2 115.62 152.27 103.47 162.49C91.32 172.71 75.7 177.82 56.6 177.82C37.5 177.82 18.82 171.71 0.56 159.48L13.12 135.6C27.53 145.66 42.61 150.68 58.36 150.68C68.58 150.68 77 148.29 83.62 143.52C90.23 138.74 93.54 131.88 93.54 122.91C93.54 113.95 89.86 106.79 82.48 101.43C75.11 96.07 64.89 93.38 51.83 93.38C45.29 93.38 39.01 94.3 32.97 96.15L32.97 73.53L73.69 26.29L10.11 26.29Z" />
		</clipPath>
	</defs>
	<style>
		tspan { white-space:pre }
		.shp0 { fill: none } 
		.shp1 { mix-blend-mode: multiply;fill: #00e5b7 } 
		.shp2 { mix-blend-mode: multiply;fill: #ffd000 } 
		.shp3 { mix-blend-mode: multiply;fill: #ff5075 } 
		.shp4 { mix-blend-mode: multiply;fill: #c9c9c9 } 
	</style>
	<g id="Layer 1">
		<g id="&lt;Group&gt;">
			<g id="&lt;Group&gt;">
				<g id="&lt;Group&gt;">
					<g id="&lt;Clip Group&gt;" clip-path="url(#cp1)">
						<path id="&lt;Compound Path&gt;" class="shp0" d="" />
						<g id="&lt;Group&gt;">
							<path id="&lt;Path&gt;" class="shp1" d="M-33.06 107C-34.65 102.05 -31.93 96.75 -26.99 95.16C-22.04 93.57 -16.74 96.29 -15.15 101.23C-13.55 106.18 -16.27 111.48 -21.22 113.07C-26.16 114.67 -31.47 111.95 -33.06 107Z" />
							<path id="&lt;Path&gt;" class="shp1" d="M109.71 154.9C106.82 168.59 93.37 177.34 79.69 174.45C66 171.55 57.25 158.11 60.15 144.42C63.04 130.73 76.48 121.99 90.17 124.88C103.86 127.78 112.6 141.22 109.71 154.9Z" />
							<path id="&lt;Path&gt;" class="shp1" d="M140.35 -21.09C136.43 -12.08 125.96 -7.96 116.96 -11.88C107.96 -15.8 103.83 -26.27 107.75 -35.27C111.67 -44.27 122.14 -48.4 131.14 -44.48C140.15 -40.56 144.27 -30.09 140.35 -21.09Z" />
							<path id="&lt;Path&gt;" class="shp1" d="M23.97 201C8.21 203.1 -6.25 192.03 -8.35 176.28C-10.44 160.52 0.62 146.06 16.38 143.96C32.13 141.86 46.59 152.93 48.69 168.69C50.79 184.44 39.72 198.9 23.97 201Z" />
							<path id="&lt;Path&gt;" class="shp1" d="M171.12 162.15C169.98 157.02 173.21 151.94 178.34 150.8C183.46 149.65 188.55 152.88 189.69 158.01C190.83 163.14 187.6 168.22 182.47 169.36C177.35 170.5 172.26 167.27 171.12 162.15Z" />
							<path id="&lt;Path&gt;" class="shp1" d="M125.41 -19.81C138.17 -28.14 155.29 -24.55 163.62 -11.78C171.96 0.99 168.37 18.1 155.6 26.44C142.83 34.77 125.72 31.18 117.38 18.41C109.04 5.64 112.64 -11.47 125.41 -19.81Z" />
							<path id="&lt;Path&gt;" class="shp1" d="M30.96 166.48C25.53 162.11 24.67 154.18 29.03 148.75C33.4 143.32 41.34 142.46 46.76 146.83C52.19 151.19 53.05 159.13 48.68 164.56C44.32 169.98 36.38 170.84 30.96 166.48Z" />
							<path id="&lt;Path&gt;" class="shp1" d="M8.14 167.81C-8.36 168.59 -22.37 155.85 -23.15 139.35C-23.93 122.85 -11.19 108.84 5.31 108.06C21.81 107.28 35.82 120.02 36.6 136.52C37.38 153.02 24.63 167.03 8.14 167.81Z" />
							<path id="&lt;Path&gt;" class="shp1" d="M180.61 38.99C180.22 47.73 172.82 54.5 164.07 54.11C155.33 53.72 148.56 46.32 148.95 37.57C149.34 28.83 156.74 22.05 165.49 22.44C174.23 22.83 181.01 30.24 180.61 38.99Z" />
							<path id="&lt;Path&gt;" class="shp1" d="M10.29 -15.67C5.99 -19.42 5.54 -25.95 9.29 -30.25C13.04 -34.56 19.56 -35 23.87 -31.26C28.17 -27.51 28.62 -20.98 24.87 -16.68C21.12 -12.37 14.59 -11.92 10.29 -15.67Z" />
							<path id="&lt;Path&gt;" class="shp1" d="M131.12 47.26C135.18 58.94 128.99 71.71 117.3 75.77C105.61 79.83 92.85 73.65 88.79 61.96C84.73 50.27 90.91 37.5 102.6 33.44C114.29 29.38 127.06 35.57 131.12 47.26Z" />
							<path id="&lt;Path&gt;" class="shp1" d="M-45.16 204.92C-52.66 197.03 -52.34 184.55 -44.45 177.06C-36.56 169.56 -24.08 169.88 -16.58 177.77C-9.08 185.66 -9.4 198.14 -17.29 205.64C-25.19 213.14 -37.66 212.82 -45.16 204.92Z" />
							<path id="&lt;Path&gt;" class="shp1" d="M51.78 106.2C57.72 97.38 69.69 95.05 78.51 101C87.33 106.94 89.66 118.91 83.72 127.73C77.77 136.55 65.8 138.88 56.98 132.94C48.16 126.99 45.83 115.02 51.78 106.2Z" />
							<path id="&lt;Path&gt;" class="shp1" d="M34.36 118.23C41.44 112.77 51.6 114.08 57.06 121.15C62.52 128.23 61.21 138.39 54.14 143.85C47.06 149.31 36.9 148 31.44 140.93C25.97 133.85 27.28 123.69 34.36 118.23Z" />
							<path id="&lt;Path&gt;" class="shp1" d="M42.49 46.61C34.76 44.74 30 36.97 31.86 29.23C33.72 21.5 41.5 16.74 49.23 18.6C56.97 20.47 61.73 28.24 59.86 35.98C58 43.71 50.22 48.47 42.49 46.61Z" />
							<path id="&lt;Path&gt;" class="shp1" d="M187.93 17.04C180.47 24.04 168.74 23.67 161.73 16.21C154.72 8.75 155.09 -2.98 162.55 -9.99C170.01 -17 181.75 -16.63 188.75 -9.17C195.76 -1.7 195.39 10.03 187.93 17.04Z" />
							<path id="&lt;Path&gt;" class="shp1" d="M155.74 90.46C155.4 95.95 150.67 100.12 145.19 99.77C139.7 99.43 135.53 94.7 135.88 89.22C136.22 83.74 140.95 79.57 146.43 79.91C151.91 80.25 156.08 84.98 155.74 90.46Z" />
							<path id="&lt;Path&gt;" class="shp1" d="M139.11 157.61C132.4 160.38 124.72 157.18 121.96 150.47C119.19 143.77 122.39 136.09 129.09 133.32C135.8 130.56 143.48 133.75 146.24 140.46C149.01 147.16 145.82 154.84 139.11 157.61Z" />
							<path id="&lt;Path&gt;" class="shp1" d="M-23.7 -39.75C-18.58 -42.9 -11.87 -41.3 -8.72 -36.18C-5.56 -31.06 -7.16 -24.35 -12.28 -21.19C-17.41 -18.04 -24.12 -19.64 -27.27 -24.76C-30.43 -29.88 -28.83 -36.59 -23.7 -39.75Z" />
							<path id="&lt;Path&gt;" class="shp1" d="M106.68 133.15C101.7 123.78 105.24 112.15 114.6 107.17C123.96 102.18 135.59 105.73 140.58 115.09C145.57 124.45 142.02 136.08 132.66 141.06C123.3 146.05 111.67 142.51 106.68 133.15Z" />
							<path id="&lt;Path&gt;" class="shp2" d="M124.58 0.77C119.55 10.02 107.98 13.45 98.72 8.43C89.47 3.4 86.04 -8.17 91.06 -17.43C96.09 -26.68 107.66 -30.11 116.92 -25.09C126.17 -20.06 129.6 -8.49 124.58 0.77Z" />
							<path id="&lt;Path&gt;" class="shp2" d="M183.39 77.34C183.52 84.23 178.04 89.92 171.16 90.05C164.27 90.19 158.57 84.71 158.44 77.82C158.31 70.94 163.78 65.24 170.67 65.11C177.56 64.97 183.25 70.45 183.39 77.34Z" />
							<path id="&lt;Path&gt;" class="shp2" d="M-32.17 100.4C-38.53 108.17 -49.99 109.32 -57.76 102.96C-65.53 96.6 -66.68 85.14 -60.32 77.36C-53.96 69.59 -42.5 68.45 -34.72 74.81C-26.95 81.17 -25.81 92.63 -32.17 100.4Z" />
							<path id="&lt;Path&gt;" class="shp2" d="M127.63 90.59C118.36 87.3 113.5 77.12 116.79 67.84C120.08 58.57 130.27 53.72 139.54 57C148.82 60.29 153.67 70.48 150.38 79.75C147.09 89.03 136.91 93.88 127.63 90.59Z" />
							<path id="&lt;Path&gt;" class="shp2" d="M49.93 108.62C44.3 107.02 41.03 101.15 42.64 95.52C44.25 89.89 50.11 86.62 55.74 88.23C61.37 89.84 64.64 95.7 63.03 101.33C61.43 106.96 55.56 110.23 49.93 108.62Z" />
							<path id="&lt;Path&gt;" class="shp2" d="M157.48 152.44C157.62 141.53 166.58 132.8 177.49 132.94C188.4 133.08 197.13 142.04 196.99 152.95C196.85 163.86 187.89 172.59 176.98 172.45C166.07 172.31 157.34 163.35 157.48 152.44Z" />
							<path id="&lt;Path&gt;" class="shp2" d="M93.78 184.89C95.94 189.32 94.09 194.66 89.66 196.81C85.22 198.97 79.89 197.12 77.73 192.69C75.58 188.26 77.42 182.92 81.86 180.76C86.29 178.61 91.63 180.45 93.78 184.89Z" />
							<path id="&lt;Path&gt;" class="shp2" d="M91.94 39.56C87 35.6 86.21 28.4 90.17 23.46C94.12 18.53 101.33 17.74 106.26 21.69C111.19 25.65 111.99 32.85 108.03 37.79C104.08 42.72 96.87 43.51 91.94 39.56Z" />
							<path id="&lt;Path&gt;" class="shp2" d="M105.86 12.77C110.77 18.24 110.32 26.64 104.85 31.55C99.39 36.46 90.98 36.01 86.07 30.54C81.16 25.07 81.61 16.66 87.08 11.76C92.55 6.85 100.96 7.3 105.86 12.77Z" />
							<path id="&lt;Path&gt;" class="shp2" d="M21.06 21.07C26.47 19.1 32.46 21.89 34.43 27.3C36.4 32.72 33.61 38.71 28.19 40.68C22.78 42.65 16.79 39.85 14.82 34.44C12.85 29.02 15.64 23.04 21.06 21.07Z" />
							<path id="&lt;Path&gt;" class="shp2" d="M-5.67 17.06C11.01 22.33 20.27 40.13 15 56.82C9.73 73.5 -8.06 82.76 -24.75 77.49C-41.44 72.22 -50.69 54.43 -45.43 37.74C-40.16 21.05 -22.36 11.8 -5.67 17.06Z" />
							<path id="&lt;Path&gt;" class="shp2" d="M10.82 94.42C24.75 99.67 31.8 115.22 26.55 129.15C21.31 143.09 5.76 150.13 -8.18 144.89C-22.11 139.64 -29.16 124.1 -23.91 110.16C-18.67 96.22 -3.12 89.18 10.82 94.42Z" />
							<path id="&lt;Path&gt;" class="shp2" d="M35.75 42.18C40.08 44.7 41.54 50.25 39.02 54.58C36.5 58.91 30.95 60.38 26.62 57.86C22.3 55.34 20.83 49.79 23.35 45.46C25.87 41.13 31.42 39.66 35.75 42.18Z" />
							<path id="&lt;Path&gt;" class="shp2" d="M174.37 -14.02C168.66 -14.33 164.28 -19.22 164.59 -24.93C164.9 -30.64 169.78 -35.01 175.49 -34.7C181.2 -34.39 185.58 -29.51 185.27 -23.8C184.96 -18.09 180.08 -13.71 174.37 -14.02Z" />
							<path id="&lt;Path&gt;" class="shp2" d="M183.08 190.92C179.88 194.6 174.3 194.99 170.62 191.79C166.94 188.59 166.54 183.01 169.74 179.33C172.94 175.65 178.52 175.26 182.2 178.45C185.89 181.65 186.28 187.23 183.08 190.92Z" />
							<path id="&lt;Path&gt;" class="shp2" d="M-67.43 118.03C-70 104.81 -61.36 92 -48.14 89.43C-34.91 86.86 -22.11 95.5 -19.54 108.72C-16.97 121.95 -25.6 134.75 -38.83 137.33C-52.05 139.9 -64.86 131.26 -67.43 118.03Z" />
							<path id="&lt;Path&gt;" class="shp2" d="M179.65 110.85C175.78 108.69 174.39 103.81 176.55 99.94C178.7 96.08 183.58 94.69 187.45 96.84C191.32 98.99 192.71 103.87 190.56 107.74C188.4 111.61 183.52 113 179.65 110.85Z" />
							<path id="&lt;Path&gt;" class="shp2" d="M67.53 -20.87C77.08 -32.32 94.1 -33.86 105.55 -24.3C117 -14.75 118.54 2.27 108.99 13.72C99.44 25.17 82.41 26.71 70.96 17.16C59.51 7.6 57.98 -9.42 67.53 -20.87Z" />
							<path id="&lt;Path&gt;" class="shp2" d="M27.06 11.4C31.11 25.48 22.98 40.18 8.89 44.23C-5.19 48.28 -19.9 40.14 -23.94 26.06C-27.99 11.97 -19.86 -2.73 -5.77 -6.78C8.32 -10.83 23.02 -2.69 27.06 11.4Z" />
							<path id="&lt;Path&gt;" class="shp2" d="M34.31 98.23C41.45 97.92 47.49 103.45 47.8 110.59C48.11 117.73 42.57 123.78 35.43 124.09C28.29 124.4 22.25 118.86 21.94 111.72C21.63 104.58 27.16 98.54 34.31 98.23Z" />
							<path id="&lt;Path&gt;" class="shp3" d="M44.31 207.04C39.34 210.56 32.46 209.39 28.94 204.43C25.41 199.47 26.58 192.58 31.54 189.06C36.51 185.54 43.39 186.7 46.91 191.67C50.44 196.63 49.27 203.51 44.31 207.04Z" />
							<path id="&lt;Path&gt;" class="shp3" d="M61.26 192.16C56.24 193.41 51.17 190.35 49.92 185.33C48.68 180.31 51.74 175.23 56.75 173.99C61.77 172.74 66.85 175.8 68.09 180.82C69.34 185.84 66.28 190.92 61.26 192.16Z" />
							<path id="&lt;Path&gt;" class="shp3" d="M77.13 112.28C81.24 97.77 96.34 89.33 110.85 93.44C125.37 97.55 133.8 112.65 129.69 127.16C125.58 141.68 110.48 150.11 95.97 146C81.45 141.89 73.02 126.8 77.13 112.28Z" />
							<path id="&lt;Path&gt;" class="shp3" d="M60.66 145.72C64.85 148.9 65.68 154.87 62.5 159.06C59.32 163.26 53.35 164.08 49.15 160.91C44.96 157.73 44.13 151.75 47.31 147.56C50.49 143.37 56.46 142.54 60.66 145.72Z" />
							<path id="&lt;Path&gt;" class="shp3" d="M144.74 202.4C141.68 206.23 136.11 206.85 132.29 203.79C128.47 200.74 127.84 195.16 130.9 191.34C133.95 187.52 139.53 186.9 143.35 189.95C147.17 193.01 147.79 198.58 144.74 202.4Z" />
							<path id="&lt;Path&gt;" class="shp3" d="M38.78 2.28C36.42 6.81 30.83 8.58 26.29 6.22C21.75 3.86 19.98 -1.73 22.34 -6.27C24.7 -10.8 30.29 -12.57 34.83 -10.21C39.37 -7.85 41.13 -2.26 38.78 2.28Z" />
							<path id="&lt;Path&gt;" class="shp3" d="M46.05 79.04C47.94 83.75 45.67 89.11 40.95 91.01C36.24 92.9 30.88 90.63 28.98 85.91C27.08 81.2 29.36 75.84 34.08 73.94C38.79 72.04 44.15 74.32 46.05 79.04Z" />
							<path id="&lt;Path&gt;" class="shp3" d="M49.67 48.55C44.81 35.31 51.6 20.65 64.84 15.79C78.08 10.93 92.75 17.72 97.6 30.96C102.46 44.2 95.67 58.87 82.43 63.73C69.19 68.58 54.52 61.79 49.67 48.55Z" />
							<path id="&lt;Path&gt;" class="shp3" d="M144.2 -23.6C141.43 -27.37 142.25 -32.67 146.02 -35.43C149.79 -38.2 155.09 -37.39 157.86 -33.61C160.62 -29.84 159.81 -24.54 156.04 -21.78C152.26 -19.01 146.97 -19.83 144.2 -23.6Z" />
							<path id="&lt;Path&gt;" class="shp3" d="M178.01 126.01C170.19 136.72 155.18 139.05 144.48 131.23C133.78 123.41 131.44 108.4 139.26 97.7C147.08 86.99 162.1 84.66 172.8 92.48C183.5 100.3 185.83 115.31 178.01 126.01Z" />
							<path id="&lt;Path&gt;" class="shp3" d="M108.13 69.99C110.56 80.35 104.14 90.73 93.78 93.16C83.41 95.6 73.04 89.18 70.6 78.81C68.16 68.45 74.59 58.08 84.95 55.64C95.31 53.2 105.69 59.63 108.13 69.99Z" />
							<path id="&lt;Path&gt;" class="shp3" d="M105.61 182.9C101.47 177.12 102.79 169.08 108.57 164.94C114.35 160.8 122.39 162.12 126.53 167.9C130.67 173.68 129.34 181.72 123.57 185.86C117.79 190 109.75 188.67 105.61 182.9Z" />
							<path id="&lt;Path&gt;" class="shp3" d="M123.8 80.29C132.33 95.4 127 114.56 111.89 123.09C96.78 131.62 77.62 126.29 69.09 111.18C60.56 96.07 65.89 76.91 81 68.38C96.11 59.85 115.28 65.18 123.8 80.29Z" />
							<path id="&lt;Path&gt;" class="shp3" d="M70.01 -7.43C55.74 -9.41 45.77 -22.58 47.75 -36.85C49.73 -51.12 62.9 -61.08 77.17 -59.1C91.44 -57.12 101.4 -43.95 99.42 -29.69C97.44 -15.42 84.27 -5.46 70.01 -7.43Z" />
							<path id="&lt;Path&gt;" class="shp3" d="M-50.7 170.72C-47.36 165.67 -40.57 164.29 -35.53 167.62C-30.49 170.95 -29.1 177.74 -32.43 182.79C-35.77 187.83 -42.56 189.21 -47.6 185.88C-52.64 182.55 -54.03 175.76 -50.7 170.72Z" />
							<path id="&lt;Path&gt;" class="shp3" d="M147.21 161.91C136.08 152.08 135.02 135.09 144.84 123.96C154.67 112.82 171.66 111.76 182.79 121.58C193.93 131.41 194.99 148.4 185.16 159.53C175.34 170.67 158.35 171.73 147.21 161.91Z" />
							<path id="&lt;Path&gt;" class="shp3" d="M103.55 -15.53C98.77 -14.05 93.69 -16.73 92.21 -21.51C90.73 -26.3 93.41 -31.37 98.19 -32.85C102.98 -34.33 108.05 -31.65 109.53 -26.87C111.01 -22.08 108.33 -17.01 103.55 -15.53Z" />
							<path id="&lt;Path&gt;" class="shp3" d="M61.53 26.96C45.43 32.62 27.79 24.16 22.13 8.06C16.46 -8.04 24.92 -25.68 41.02 -31.34C57.12 -37 74.76 -28.54 80.42 -12.44C86.08 3.65 77.62 21.29 61.53 26.96Z" />
							<path id="&lt;Path&gt;" class="shp3" d="M142.11 38.97C139.59 50.72 128.01 58.2 116.26 55.67C104.51 53.14 97.04 41.57 99.56 29.82C102.09 18.07 113.66 10.59 125.41 13.12C137.16 15.64 144.64 27.22 142.11 38.97Z" />
							<path id="&lt;Path&gt;" class="shp3" d="M0.72 52.74C3.06 46.91 9.67 44.09 15.49 46.42C21.31 48.75 24.14 55.37 21.81 61.19C19.47 67.01 12.86 69.84 7.04 67.51C1.21 65.17 -1.61 58.56 0.72 52.74Z" />
							<path id="&lt;Path&gt;" class="shp4" d="M-6.52 42.9C-8.57 32.96 -2.18 23.24 7.75 21.19C17.69 19.13 27.41 25.52 29.46 35.46C31.51 45.4 25.12 55.12 15.19 57.17C5.25 59.22 -4.47 52.83 -6.52 42.9Z" />
							<path id="&lt;Path&gt;" class="shp4" d="M36.66 66.82C34.56 59.03 39.18 51.02 46.97 48.93C54.76 46.83 62.78 51.45 64.87 59.24C66.96 67.04 62.34 75.05 54.55 77.14C46.76 79.23 38.75 74.61 36.66 66.82Z" />
							<path id="&lt;Path&gt;" class="shp4" d="M-7.4 79.64C-7.84 90.8 -17.24 99.5 -28.4 99.06C-39.56 98.62 -48.26 89.22 -47.82 78.06C-47.39 66.89 -37.98 58.2 -26.82 58.64C-15.66 59.07 -6.96 68.48 -7.4 79.64Z" />
							<path id="&lt;Path&gt;" class="shp4" d="M67.42 99.13C59.66 101.94 51.09 97.92 48.28 90.16C45.47 82.4 49.49 73.83 57.25 71.02C65.01 68.21 73.58 72.22 76.39 79.99C79.2 87.75 75.19 96.32 67.42 99.13Z" />
							<path id="&lt;Path&gt;" class="shp4" d="M38.69 -22.83C32.87 -25.52 30.32 -32.41 33 -38.24C35.68 -44.07 42.58 -46.62 48.41 -43.93C54.23 -41.25 56.78 -34.35 54.1 -28.53C51.42 -22.7 44.52 -20.15 38.69 -22.83Z" />
							<path id="&lt;Path&gt;" class="shp4" d="M164.83 58.87C164.1 54.16 167.33 49.74 172.05 49.01C176.77 48.28 181.18 51.51 181.91 56.23C182.65 60.94 179.41 65.36 174.7 66.09C169.98 66.82 165.56 63.59 164.83 58.87Z" />
							<path id="&lt;Path&gt;" class="shp4" d="M5.49 184.76C7.49 191.03 4.04 197.73 -2.23 199.74C-8.5 201.74 -15.2 198.29 -17.21 192.02C-19.21 185.75 -15.76 179.05 -9.49 177.04C-3.22 175.04 3.48 178.49 5.49 184.76Z" />
							<path id="&lt;Path&gt;" class="shp4" d="M29.84 79.2C33.67 91.08 27.15 103.81 15.27 107.64C3.4 111.47 -9.34 104.95 -13.17 93.07C-17 81.2 -10.48 68.47 1.4 64.63C13.27 60.8 26.01 67.32 29.84 79.2Z" />
							<path id="&lt;Path&gt;" class="shp4" d="M158.6 150.88C170.55 157.05 175.24 171.73 169.07 183.68C162.91 195.63 148.23 200.31 136.28 194.15C124.33 187.98 119.64 173.3 125.81 161.35C131.97 149.4 146.66 144.72 158.6 150.88Z" />
							<path id="&lt;Path&gt;" class="shp4" d="M-49.25 148.73C-51.45 144.68 -49.96 139.62 -45.92 137.42C-41.88 135.22 -36.81 136.71 -34.61 140.76C-32.41 144.8 -33.91 149.86 -37.95 152.06C-41.99 154.26 -47.05 152.77 -49.25 148.73Z" />
							<path id="&lt;Path&gt;" class="shp4" d="M-39.45 -12.54C-47.94 -10.4 -56.57 -15.54 -58.71 -24.04C-60.86 -32.54 -55.71 -41.16 -47.21 -43.31C-38.71 -45.45 -30.09 -40.3 -27.94 -31.8C-25.8 -23.31 -30.95 -14.68 -39.45 -12.54Z" />
							<path id="&lt;Path&gt;" class="shp4" d="M135.66 54C134.89 49.11 138.23 44.52 143.12 43.74C148.01 42.97 152.6 46.31 153.38 51.2C154.15 56.09 150.81 60.68 145.92 61.46C141.03 62.23 136.43 58.89 135.66 54Z" />
							<path id="&lt;Path&gt;" class="shp4" d="M-32.25 107.38C-21.16 107.49 -12.26 116.58 -12.37 127.68C-12.49 138.77 -21.58 147.67 -32.67 147.56C-43.77 147.44 -52.67 138.35 -52.55 127.26C-52.44 116.16 -43.35 107.26 -32.25 107.38Z" />
							<path id="&lt;Path&gt;" class="shp4" d="M-32.64 63.13C-38.85 65.88 -46.12 63.08 -48.88 56.86C-51.63 50.65 -48.82 43.38 -42.61 40.62C-36.39 37.87 -29.12 40.67 -26.37 46.89C-23.61 53.11 -26.42 60.38 -32.64 63.13Z" />
							<path id="&lt;Path&gt;" class="shp4" d="M-57.75 6.19C-62.96 -0.35 -61.89 -9.87 -55.36 -15.08C-48.82 -20.29 -39.3 -19.21 -34.09 -12.68C-28.88 -6.14 -29.95 3.38 -36.49 8.59C-43.02 13.8 -52.54 12.73 -57.75 6.19Z" />
							<path id="&lt;Path&gt;" class="shp4" d="M-25.16 -34.35C-10.75 -39.82 5.36 -32.57 10.82 -18.16C16.29 -3.76 9.04 12.35 -5.36 17.82C-19.77 23.28 -35.88 16.04 -41.35 1.63C-46.81 -12.77 -39.56 -28.88 -25.16 -34.35Z" />
							<path id="&lt;Path&gt;" class="shp4" d="M-9.88 161.73C-17.58 156.16 -19.3 145.4 -13.72 137.7C-8.15 130.01 2.61 128.29 10.31 133.86C18 139.44 19.72 150.2 14.15 157.89C8.57 165.59 -2.19 167.31 -9.88 161.73Z" />
							<path id="&lt;Path&gt;" class="shp4" d="M120.44 92.09C124.78 92.76 127.75 96.82 127.08 101.15C126.41 105.49 122.35 108.46 118.02 107.79C113.68 107.12 110.71 103.07 111.38 98.73C112.05 94.39 116.1 91.42 120.44 92.09Z" />
							<path id="&lt;Path&gt;" class="shp4" d="M-26.57 176.54C-35.26 174 -40.24 164.91 -37.71 156.22C-35.17 147.53 -26.07 142.55 -17.38 145.08C-8.7 147.62 -3.71 156.72 -6.25 165.41C-8.79 174.09 -17.88 179.08 -26.57 176.54Z" />
							<path id="&lt;Path&gt;" class="shp4" d="M-30.46 20.92C-27.33 25.14 -28.22 31.11 -32.45 34.24C-36.68 37.37 -42.64 36.48 -45.77 32.25C-48.9 28.02 -48.01 22.06 -43.78 18.93C-39.56 15.8 -33.59 16.69 -30.46 20.92Z" />
						</g>
					</g>
				</g>
			</g>
		</g>
	</g>
</svg>