<svg version="1.2" baseProfile="tiny-ps" xmlns="http://www.w3.org/2000/svg" viewBox="0 0 123 181" width="123" height="181">
	<title>Layer 1</title>
	<defs>
		<clipPath clipPathUnits="userSpaceOnUse" id="cp1">
			<path d="M81.09 73.5C86.12 66.64 88.63 59.68 88.63 52.64C88.63 45.61 85.95 39.62 80.59 34.68C75.22 29.74 68.44 27.27 60.23 27.27C45.83 27.27 33.85 34.64 24.29 49.38L0.43 35.56C8.13 24 16.63 15.29 25.94 9.42C35.23 3.56 47.21 0.63 61.87 0.63C76.53 0.63 89.39 5.27 100.44 14.57C111.5 23.87 117.03 36.56 117.03 52.64C117.03 61.69 114.69 70.32 109.99 78.53C105.3 86.74 96.68 97.3 84.11 110.2L42.9 152.16L122.56 152.16L122.56 180.56L2.44 180.56L2.44 155.43L55.71 101.9C67.61 89.84 76.07 80.38 81.09 73.5Z" />
		</clipPath>
	</defs>
	<style>
		tspan { white-space:pre }
		.shp0 { fill: none } 
		.shp1 { mix-blend-mode: multiply;fill: #00e5b7 } 
		.shp2 { mix-blend-mode: multiply;fill: #ffd000 } 
		.shp3 { mix-blend-mode: multiply;fill: #ff5075 } 
		.shp4 { mix-blend-mode: multiply;fill: #c9c9c9 } 
	</style>
	<g id="Layer 1">
		<g id="&lt;Group&gt;">
			<g id="&lt;Group&gt;">
				<g id="&lt;Group&gt;">
					<g id="&lt;Clip Group&gt;" clip-path="url(#cp1)">
						<path id="&lt;Compound Path&gt;" class="shp0" d="" />
						<g id="&lt;Group&gt;">
							<path id="&lt;Path&gt;" class="shp1" d="M-34.57 112C-36.17 107.05 -33.45 101.75 -28.5 100.16C-23.55 98.57 -18.25 101.29 -16.66 106.23C-15.07 111.18 -17.79 116.48 -22.73 118.07C-27.68 119.67 -32.98 116.95 -34.57 112Z" />
							<path id="&lt;Path&gt;" class="shp1" d="M108.2 159.9C105.3 173.59 91.86 182.34 78.17 179.45C64.48 176.55 55.74 163.11 58.63 149.42C61.53 135.73 74.97 126.99 88.65 129.88C102.34 132.78 111.09 146.22 108.2 159.9Z" />
							<path id="&lt;Path&gt;" class="shp1" d="M138.83 -16.09C134.92 -7.08 124.44 -2.96 115.44 -6.88C106.44 -10.8 102.32 -21.27 106.24 -30.27C110.16 -39.27 120.63 -43.4 129.63 -39.48C138.63 -35.56 142.75 -25.09 138.83 -16.09Z" />
							<path id="&lt;Path&gt;" class="shp1" d="M22.45 206C6.7 208.1 -7.77 197.03 -9.86 181.28C-11.96 165.52 -0.89 151.06 14.86 148.96C30.61 146.86 45.08 157.93 47.18 173.69C49.27 189.44 38.2 203.9 22.45 206Z" />
							<path id="&lt;Path&gt;" class="shp1" d="M169.61 167.15C168.47 162.02 171.7 156.94 176.82 155.8C181.95 154.65 187.03 157.88 188.17 163.01C189.31 168.14 186.08 173.22 180.96 174.36C175.83 175.5 170.75 172.27 169.61 167.15Z" />
							<path id="&lt;Path&gt;" class="shp1" d="M123.89 -14.81C136.66 -23.14 153.77 -19.55 162.11 -6.78C170.45 5.99 166.85 23.1 154.08 31.44C141.31 39.77 124.2 36.18 115.86 23.41C107.53 10.64 111.12 -6.47 123.89 -14.81Z" />
							<path id="&lt;Path&gt;" class="shp1" d="M29.44 171.48C24.02 167.11 23.16 159.18 27.52 153.75C31.88 148.32 39.82 147.46 45.25 151.83C50.67 156.19 51.53 164.13 47.17 169.56C42.8 174.98 34.87 175.84 29.44 171.48Z" />
							<path id="&lt;Path&gt;" class="shp1" d="M6.62 172.81C-9.88 173.59 -23.88 160.85 -24.67 144.35C-25.45 127.85 -12.7 113.84 3.79 113.06C20.29 112.28 34.3 125.02 35.08 141.52C35.86 158.02 23.12 172.03 6.62 172.81Z" />
							<path id="&lt;Path&gt;" class="shp1" d="M179.1 43.99C178.71 52.73 171.3 59.5 162.56 59.11C153.81 58.72 147.04 51.32 147.43 42.57C147.82 33.83 155.23 27.05 163.97 27.44C172.72 27.83 179.49 35.24 179.1 43.99Z" />
							<path id="&lt;Path&gt;" class="shp1" d="M8.77 -10.67C4.47 -14.42 4.02 -20.95 7.77 -25.25C11.52 -29.56 18.05 -30 22.35 -26.26C26.65 -22.51 27.1 -15.98 23.35 -11.68C19.61 -7.37 13.08 -6.92 8.77 -10.67Z" />
							<path id="&lt;Path&gt;" class="shp1" d="M129.6 52.26C133.66 63.94 127.48 76.71 115.79 80.77C104.1 84.83 91.33 78.65 87.27 66.96C83.21 55.27 89.4 42.5 101.09 38.44C112.78 34.38 125.54 40.57 129.6 52.26Z" />
							<path id="&lt;Path&gt;" class="shp1" d="M-46.68 209.92C-54.18 202.03 -53.86 189.55 -45.96 182.06C-38.07 174.56 -25.59 174.88 -18.09 182.77C-10.6 190.66 -10.91 203.14 -18.81 210.64C-26.7 218.14 -39.18 217.82 -46.68 209.92Z" />
							<path id="&lt;Path&gt;" class="shp1" d="M50.26 111.2C56.2 102.38 68.17 100.05 76.99 106C85.81 111.94 88.15 123.91 82.2 132.73C76.26 141.55 64.29 143.88 55.47 137.94C46.65 131.99 44.32 120.02 50.26 111.2Z" />
							<path id="&lt;Path&gt;" class="shp1" d="M32.85 123.23C39.92 117.77 50.09 119.08 55.55 126.15C61.01 133.23 59.7 143.39 52.62 148.85C45.55 154.31 35.38 153 29.92 145.93C24.46 138.85 25.77 128.69 32.85 123.23Z" />
							<path id="&lt;Path&gt;" class="shp1" d="M40.98 51.61C33.24 49.74 28.48 41.97 30.35 34.23C32.21 26.5 39.99 21.74 47.72 23.6C55.45 25.47 60.21 33.24 58.35 40.98C56.49 48.71 48.71 53.47 40.98 51.61Z" />
							<path id="&lt;Path&gt;" class="shp1" d="M186.41 22.04C178.95 29.04 167.22 28.67 160.21 21.21C153.21 13.75 153.58 2.02 161.04 -4.99C168.5 -12 180.23 -11.63 187.24 -4.17C194.25 3.3 193.88 15.03 186.41 22.04Z" />
							<path id="&lt;Path&gt;" class="shp1" d="M154.22 95.46C153.88 100.95 149.16 105.12 143.67 104.77C138.19 104.43 134.02 99.7 134.36 94.22C134.71 88.74 139.43 84.57 144.92 84.91C150.4 85.25 154.57 89.98 154.22 95.46Z" />
							<path id="&lt;Path&gt;" class="shp1" d="M137.59 162.61C130.89 165.38 123.21 162.18 120.44 155.47C117.68 148.77 120.87 141.09 127.58 138.32C134.28 135.56 141.96 138.75 144.73 145.46C147.5 152.16 144.3 159.84 137.59 162.61Z" />
							<path id="&lt;Path&gt;" class="shp1" d="M-25.22 -34.75C-20.1 -37.9 -13.39 -36.3 -10.23 -31.18C-7.08 -26.06 -8.67 -19.35 -13.8 -16.19C-18.92 -13.04 -25.63 -14.64 -28.79 -19.76C-31.94 -24.88 -30.34 -31.59 -25.22 -34.75Z" />
							<path id="&lt;Path&gt;" class="shp1" d="M105.17 138.15C100.18 128.78 103.73 117.15 113.09 112.17C122.45 107.18 134.08 110.73 139.07 120.09C144.05 129.45 140.51 141.08 131.15 146.06C121.79 151.05 110.15 147.51 105.17 138.15Z" />
							<path id="&lt;Path&gt;" class="shp2" d="M123.06 5.77C118.04 15.02 106.46 18.45 97.21 13.43C87.95 8.4 84.52 -3.17 89.55 -12.43C94.57 -21.68 106.15 -25.11 115.4 -20.09C124.66 -15.06 128.08 -3.49 123.06 5.77Z" />
							<path id="&lt;Path&gt;" class="shp2" d="M181.87 82.34C182.01 89.23 176.53 94.92 169.64 95.05C162.75 95.19 157.06 89.71 156.93 82.82C156.79 75.94 162.27 70.24 169.16 70.11C176.04 69.97 181.74 75.45 181.87 82.34Z" />
							<path id="&lt;Path&gt;" class="shp2" d="M-33.68 105.4C-40.04 113.17 -51.5 114.32 -59.28 107.96C-67.05 101.6 -68.19 90.14 -61.83 82.36C-55.47 74.59 -44.01 73.45 -36.24 79.81C-28.47 86.17 -27.32 97.63 -33.68 105.4Z" />
							<path id="&lt;Path&gt;" class="shp2" d="M126.12 95.59C116.84 92.3 111.99 82.12 115.28 72.84C118.57 63.57 128.75 58.72 138.03 62C147.3 65.29 152.16 75.48 148.87 84.75C145.58 94.03 135.39 98.88 126.12 95.59Z" />
							<path id="&lt;Path&gt;" class="shp2" d="M48.41 113.62C42.78 112.02 39.52 106.15 41.13 100.52C42.73 94.89 48.6 91.62 54.23 93.23C59.86 94.84 63.12 100.7 61.52 106.33C59.91 111.96 54.04 115.23 48.41 113.62Z" />
							<path id="&lt;Path&gt;" class="shp2" d="M155.97 157.44C156.11 146.53 165.07 137.8 175.97 137.94C186.88 138.08 195.61 147.04 195.47 157.95C195.33 168.86 186.38 177.59 175.47 177.45C164.56 177.31 155.83 168.35 155.97 157.44Z" />
							<path id="&lt;Path&gt;" class="shp2" d="M92.27 189.89C94.42 194.32 92.58 199.66 88.14 201.81C83.71 203.97 78.37 202.12 76.22 197.69C74.06 193.26 75.91 187.92 80.34 185.76C84.78 183.61 90.12 185.45 92.27 189.89Z" />
							<path id="&lt;Path&gt;" class="shp2" d="M90.42 44.56C85.49 40.6 84.7 33.4 88.65 28.46C92.61 23.53 99.81 22.74 104.75 26.69C109.68 30.65 110.47 37.85 106.52 42.79C102.56 47.72 95.36 48.51 90.42 44.56Z" />
							<path id="&lt;Path&gt;" class="shp2" d="M104.35 17.77C109.26 23.24 108.8 31.64 103.34 36.55C97.87 41.46 89.46 41.01 84.55 35.54C79.65 30.07 80.1 21.66 85.57 16.76C91.03 11.85 99.44 12.3 104.35 17.77Z" />
							<path id="&lt;Path&gt;" class="shp2" d="M19.54 26.07C24.96 24.1 30.95 26.89 32.92 32.3C34.89 37.72 32.09 43.71 26.68 45.68C21.26 47.65 15.28 44.85 13.31 39.44C11.34 34.02 14.13 28.04 19.54 26.07Z" />
							<path id="&lt;Path&gt;" class="shp2" d="M-7.19 22.06C9.5 27.33 18.76 45.13 13.49 61.82C8.22 78.5 -9.58 87.76 -26.26 82.49C-42.95 77.22 -52.21 59.43 -46.94 42.74C-41.67 26.05 -23.87 16.8 -7.19 22.06Z" />
							<path id="&lt;Path&gt;" class="shp2" d="M9.3 99.42C23.24 104.67 30.28 120.22 25.04 134.15C19.79 148.09 4.25 155.13 -9.69 149.89C-23.63 144.64 -30.67 129.1 -25.43 115.16C-20.18 101.22 -4.63 94.18 9.3 99.42Z" />
							<path id="&lt;Path&gt;" class="shp2" d="M34.23 47.18C38.56 49.7 40.03 55.25 37.51 59.58C34.99 63.91 29.44 65.38 25.11 62.86C20.78 60.34 19.31 54.79 21.83 50.46C24.35 46.13 29.9 44.66 34.23 47.18Z" />
							<path id="&lt;Path&gt;" class="shp2" d="M172.85 -9.02C167.14 -9.33 162.76 -14.22 163.08 -19.93C163.39 -25.64 168.27 -30.01 173.98 -29.7C179.69 -29.39 184.07 -24.51 183.75 -18.8C183.44 -13.09 178.56 -8.71 172.85 -9.02Z" />
							<path id="&lt;Path&gt;" class="shp2" d="M181.57 195.92C178.37 199.6 172.79 199.99 169.1 196.79C165.42 193.59 165.03 188.01 168.23 184.33C171.43 180.65 177.01 180.26 180.69 183.45C184.37 186.65 184.76 192.23 181.57 195.92Z" />
							<path id="&lt;Path&gt;" class="shp2" d="M-68.95 123.03C-71.52 109.81 -62.88 97 -49.65 94.43C-36.43 91.86 -23.62 100.5 -21.05 113.72C-18.48 126.95 -27.12 139.75 -40.34 142.33C-53.57 144.9 -66.37 136.26 -68.95 123.03Z" />
							<path id="&lt;Path&gt;" class="shp2" d="M178.14 115.85C174.27 113.69 172.88 108.81 175.03 104.94C177.19 101.08 182.07 99.69 185.94 101.84C189.8 103.99 191.2 108.87 189.04 112.74C186.89 116.61 182.01 118 178.14 115.85Z" />
							<path id="&lt;Path&gt;" class="shp2" d="M66.01 -15.87C75.57 -27.32 92.59 -28.86 104.04 -19.3C115.49 -9.75 117.03 7.27 107.47 18.72C97.92 30.17 80.9 31.71 69.45 22.16C58 12.6 56.46 -4.42 66.01 -15.87Z" />
							<path id="&lt;Path&gt;" class="shp2" d="M25.55 16.4C29.6 30.48 21.46 45.18 7.38 49.23C-6.71 53.28 -21.41 45.14 -25.46 31.06C-29.51 16.97 -21.37 2.27 -7.28 -1.78C6.8 -5.83 21.5 2.31 25.55 16.4Z" />
							<path id="&lt;Path&gt;" class="shp2" d="M32.79 103.23C39.93 102.92 45.97 108.45 46.28 115.59C46.59 122.73 41.06 128.78 33.92 129.09C26.78 129.4 20.74 123.86 20.42 116.72C20.11 109.58 25.65 103.54 32.79 103.23Z" />
							<path id="&lt;Path&gt;" class="shp3" d="M42.79 212.04C37.83 215.56 30.95 214.39 27.42 209.43C23.9 204.47 25.07 197.58 30.03 194.06C34.99 190.54 41.87 191.7 45.4 196.67C48.92 201.63 47.76 208.51 42.79 212.04Z" />
							<path id="&lt;Path&gt;" class="shp3" d="M59.75 197.16C54.73 198.41 49.65 195.35 48.41 190.33C47.16 185.31 50.22 180.23 55.24 178.99C60.26 177.74 65.33 180.8 66.58 185.82C67.82 190.84 64.77 195.92 59.75 197.16Z" />
							<path id="&lt;Path&gt;" class="shp3" d="M75.61 117.28C79.72 102.77 94.82 94.33 109.34 98.44C123.85 102.55 132.29 117.65 128.18 132.16C124.07 146.68 108.97 155.11 94.45 151C79.94 146.89 71.5 131.8 75.61 117.28Z" />
							<path id="&lt;Path&gt;" class="shp3" d="M59.14 150.72C63.34 153.9 64.16 159.87 60.98 164.06C57.81 168.26 51.83 169.08 47.64 165.91C43.44 162.73 42.62 156.75 45.8 152.56C48.97 148.37 54.95 147.54 59.14 150.72Z" />
							<path id="&lt;Path&gt;" class="shp3" d="M143.22 207.4C140.17 211.23 134.6 211.85 130.77 208.79C126.95 205.74 126.33 200.16 129.38 196.34C132.44 192.52 138.01 191.9 141.83 194.95C145.66 198.01 146.28 203.58 143.22 207.4Z" />
							<path id="&lt;Path&gt;" class="shp3" d="M37.26 7.28C34.9 11.81 29.31 13.58 24.77 11.22C20.24 8.86 18.47 3.27 20.83 -1.27C23.19 -5.8 28.78 -7.57 33.32 -5.21C37.85 -2.85 39.62 2.74 37.26 7.28Z" />
							<path id="&lt;Path&gt;" class="shp3" d="M44.53 84.04C46.43 88.75 44.15 94.11 39.44 96.01C34.73 97.9 29.37 95.63 27.47 90.91C25.57 86.2 27.85 80.84 32.56 78.94C37.27 77.04 42.63 79.32 44.53 84.04Z" />
							<path id="&lt;Path&gt;" class="shp3" d="M48.15 53.55C43.29 40.31 50.09 25.65 63.32 20.79C76.56 15.93 91.23 22.72 96.09 35.96C100.95 49.2 94.16 63.87 80.92 68.73C67.68 73.58 53.01 66.79 48.15 53.55Z" />
							<path id="&lt;Path&gt;" class="shp3" d="M142.69 -18.6C139.92 -22.37 140.73 -27.67 144.51 -30.43C148.28 -33.2 153.58 -32.39 156.34 -28.61C159.11 -24.84 158.29 -19.54 154.52 -16.78C150.75 -14.01 145.45 -14.83 142.69 -18.6Z" />
							<path id="&lt;Path&gt;" class="shp3" d="M176.5 131.01C168.68 141.72 153.66 144.05 142.96 136.23C132.26 128.41 129.93 113.4 137.75 102.7C145.57 91.99 160.58 89.66 171.28 97.48C181.98 105.3 184.32 120.31 176.5 131.01Z" />
							<path id="&lt;Path&gt;" class="shp3" d="M106.61 74.99C109.05 85.35 102.62 95.73 92.26 98.16C81.9 100.6 71.52 94.18 69.08 83.81C66.65 73.45 73.07 63.08 83.43 60.64C93.8 58.2 104.17 64.63 106.61 74.99Z" />
							<path id="&lt;Path&gt;" class="shp3" d="M104.09 187.9C99.95 182.12 101.28 174.08 107.06 169.94C112.84 165.8 120.88 167.12 125.02 172.9C129.16 178.68 127.83 186.72 122.05 190.86C116.27 195 108.23 193.67 104.09 187.9Z" />
							<path id="&lt;Path&gt;" class="shp3" d="M122.29 85.29C130.82 100.4 125.49 119.56 110.38 128.09C95.27 136.62 76.11 131.29 67.58 116.18C59.05 101.07 64.38 81.91 79.49 73.38C94.6 64.85 113.76 70.18 122.29 85.29Z" />
							<path id="&lt;Path&gt;" class="shp3" d="M68.49 -2.43C54.22 -4.41 44.26 -17.58 46.24 -31.85C48.22 -46.12 61.39 -56.08 75.65 -54.1C89.92 -52.12 99.88 -38.95 97.91 -24.69C95.93 -10.42 82.76 -0.46 68.49 -2.43Z" />
							<path id="&lt;Path&gt;" class="shp3" d="M-52.21 175.72C-48.88 170.67 -42.09 169.29 -37.04 172.62C-32 175.95 -30.61 182.74 -33.95 187.79C-37.28 192.83 -44.07 194.21 -49.11 190.88C-54.16 187.55 -55.54 180.76 -52.21 175.72Z" />
							<path id="&lt;Path&gt;" class="shp3" d="M145.7 166.91C134.56 157.08 133.5 140.09 143.33 128.96C153.15 117.82 170.14 116.76 181.28 126.58C192.41 136.41 193.47 153.4 183.65 164.53C173.82 175.67 156.83 176.73 145.7 166.91Z" />
							<path id="&lt;Path&gt;" class="shp3" d="M102.04 -10.53C97.25 -9.05 92.17 -11.73 90.69 -16.51C89.22 -21.3 91.89 -26.37 96.68 -27.85C101.46 -29.33 106.54 -26.65 108.02 -21.87C109.5 -17.08 106.82 -12.01 102.04 -10.53Z" />
							<path id="&lt;Path&gt;" class="shp3" d="M60.01 31.96C43.91 37.62 26.27 29.16 20.61 13.06C14.95 -3.04 23.41 -20.68 39.51 -26.34C55.61 -32 73.25 -23.54 78.91 -7.44C84.57 8.65 76.11 26.29 60.01 31.96Z" />
							<path id="&lt;Path&gt;" class="shp3" d="M140.6 43.97C138.07 55.72 126.5 63.2 114.75 60.67C103 58.14 95.52 46.57 98.05 34.82C100.57 23.07 112.15 15.59 123.9 18.12C135.65 20.64 143.13 32.22 140.6 43.97Z" />
							<path id="&lt;Path&gt;" class="shp3" d="M-0.79 57.74C1.54 51.91 8.15 49.09 13.98 51.42C19.8 53.75 22.63 60.37 20.29 66.19C17.96 72.01 11.35 74.84 5.52 72.51C-0.3 70.17 -3.13 63.56 -0.79 57.74Z" />
							<path id="&lt;Path&gt;" class="shp4" d="M-8.03 47.9C-10.09 37.96 -3.7 28.24 6.24 26.19C16.17 24.13 25.89 30.52 27.95 40.46C30 50.4 23.61 60.12 13.67 62.17C3.74 64.22 -5.98 57.83 -8.03 47.9Z" />
							<path id="&lt;Path&gt;" class="shp4" d="M35.14 71.82C33.05 64.03 37.67 56.02 45.46 53.93C53.25 51.83 61.26 56.45 63.35 64.24C65.45 72.04 60.83 80.05 53.04 82.14C45.25 84.23 37.23 79.61 35.14 71.82Z" />
							<path id="&lt;Path&gt;" class="shp4" d="M-8.91 84.64C-9.35 95.8 -18.75 104.5 -29.92 104.06C-41.08 103.62 -49.77 94.22 -49.34 83.06C-48.9 71.89 -39.5 63.2 -28.33 63.64C-17.17 64.07 -8.48 73.48 -8.91 84.64Z" />
							<path id="&lt;Path&gt;" class="shp4" d="M65.91 104.13C58.15 106.94 49.58 102.92 46.77 95.16C43.96 87.4 47.97 78.83 55.73 76.02C63.5 73.21 72.07 77.22 74.88 84.99C77.69 92.75 73.67 101.32 65.91 104.13Z" />
							<path id="&lt;Path&gt;" class="shp4" d="M37.18 -17.83C31.35 -20.52 28.8 -27.41 31.48 -33.24C34.17 -39.07 41.07 -41.62 46.89 -38.93C52.72 -36.25 55.27 -29.35 52.59 -23.53C49.9 -17.7 43 -15.15 37.18 -17.83Z" />
							<path id="&lt;Path&gt;" class="shp4" d="M163.32 63.87C162.59 59.16 165.82 54.74 170.53 54.01C175.25 53.28 179.67 56.51 180.4 61.23C181.13 65.94 177.9 70.36 173.18 71.09C168.47 71.82 164.05 68.59 163.32 63.87Z" />
							<path id="&lt;Path&gt;" class="shp4" d="M3.97 189.76C5.98 196.03 2.52 202.73 -3.75 204.74C-10.01 206.74 -16.72 203.29 -18.72 197.02C-20.73 190.75 -17.27 184.05 -11.01 182.04C-4.74 180.04 1.97 183.49 3.97 189.76Z" />
							<path id="&lt;Path&gt;" class="shp4" d="M28.32 84.2C32.15 96.08 25.63 108.81 13.76 112.64C1.88 116.47 -10.85 109.95 -14.68 98.07C-18.51 86.2 -11.99 73.47 -0.12 69.63C11.76 65.8 24.49 72.32 28.32 84.2Z" />
							<path id="&lt;Path&gt;" class="shp4" d="M157.09 155.88C169.04 162.05 173.73 176.73 167.56 188.68C161.4 200.63 146.71 205.31 134.76 199.15C122.82 192.98 118.13 178.3 124.29 166.35C130.46 154.4 145.14 149.72 157.09 155.88Z" />
							<path id="&lt;Path&gt;" class="shp4" d="M-50.77 153.73C-52.97 149.68 -51.47 144.62 -47.43 142.42C-43.39 140.22 -38.33 141.71 -36.13 145.76C-33.93 149.8 -35.42 154.86 -39.46 157.06C-43.5 159.26 -48.56 157.77 -50.77 153.73Z" />
							<path id="&lt;Path&gt;" class="shp4" d="M-40.96 -7.54C-49.46 -5.4 -58.08 -10.54 -60.23 -19.04C-62.37 -27.54 -57.22 -36.16 -48.72 -38.31C-40.23 -40.45 -31.6 -35.3 -29.46 -26.8C-27.32 -18.31 -32.46 -9.68 -40.96 -7.54Z" />
							<path id="&lt;Path&gt;" class="shp4" d="M134.15 59C133.37 54.11 136.71 49.52 141.6 48.74C146.49 47.97 151.09 51.31 151.86 56.2C152.64 61.09 149.3 65.68 144.41 66.46C139.51 67.23 134.92 63.89 134.15 59Z" />
							<path id="&lt;Path&gt;" class="shp4" d="M-33.77 112.38C-22.67 112.49 -13.77 121.58 -13.89 132.68C-14 143.77 -23.09 152.67 -34.19 152.56C-45.28 152.44 -54.18 143.35 -54.07 132.26C-53.95 121.16 -44.86 112.26 -33.77 112.38Z" />
							<path id="&lt;Path&gt;" class="shp4" d="M-34.15 68.13C-40.37 70.88 -47.64 68.08 -50.39 61.86C-53.14 55.65 -50.34 48.38 -44.12 45.62C-37.91 42.87 -30.64 45.67 -27.88 51.89C-25.13 58.11 -27.93 65.38 -34.15 68.13Z" />
							<path id="&lt;Path&gt;" class="shp4" d="M-59.27 11.19C-64.48 4.65 -63.4 -4.87 -56.87 -10.08C-50.33 -15.29 -40.81 -14.21 -35.6 -7.68C-30.39 -1.14 -31.46 8.38 -38 13.59C-44.54 18.8 -54.06 17.73 -59.27 11.19Z" />
							<path id="&lt;Path&gt;" class="shp4" d="M-26.67 -29.35C-12.27 -34.82 3.84 -27.57 9.31 -13.16C14.77 1.24 7.53 17.35 -6.88 22.82C-21.29 28.28 -37.39 21.04 -42.86 6.63C-48.33 -7.77 -41.08 -23.88 -26.67 -29.35Z" />
							<path id="&lt;Path&gt;" class="shp4" d="M-11.4 166.73C-19.1 161.16 -20.81 150.4 -15.24 142.7C-9.66 135.01 1.1 133.29 8.79 138.86C16.49 144.44 18.21 155.2 12.63 162.89C7.06 170.59 -3.7 172.31 -11.4 166.73Z" />
							<path id="&lt;Path&gt;" class="shp4" d="M118.93 97.09C123.26 97.76 126.23 101.82 125.57 106.15C124.9 110.49 120.84 113.46 116.5 112.79C112.17 112.12 109.19 108.07 109.86 103.73C110.53 99.39 114.59 96.42 118.93 97.09Z" />
							<path id="&lt;Path&gt;" class="shp4" d="M-28.09 181.54C-36.77 179 -41.76 169.91 -39.22 161.22C-36.68 152.53 -27.59 147.55 -18.9 150.08C-10.21 152.62 -5.23 161.72 -7.76 170.41C-10.3 179.09 -19.4 184.08 -28.09 181.54Z" />
							<path id="&lt;Path&gt;" class="shp4" d="M-31.98 25.92C-28.85 30.14 -29.74 36.11 -33.96 39.24C-38.19 42.37 -44.15 41.48 -47.28 37.25C-50.41 33.02 -49.52 27.06 -45.3 23.93C-41.07 20.8 -35.11 21.69 -31.98 25.92Z" />
						</g>
					</g>
				</g>
			</g>
		</g>
	</g>
</svg>